<svg width="753" height="116" viewBox="0 0 753 116" fill="none" xmlns="http://www.w3.org/2000/svg">
<rect y="0.400002" width="753" height="115.2" rx="15" fill="#41404C"/>
<rect y="0.400002" width="725.83" height="111.6" rx="15" fill="#41404C"/>
<path d="M381.622 55.348C381.55 55.936 381.514 56.518 381.514 57.094C381.514 57.718 381.562 58.378 381.658 59.074C381.838 60.274 382.174 61.432 382.666 62.548C382.702 62.62 382.72 62.674 382.72 62.71V62.854C382.708 62.95 382.678 63.016 382.63 63.052C382.558 63.124 382.498 63.172 382.45 63.196L381.676 63.628C381.328 62.98 381.034 62.296 380.794 61.576C380.542 60.844 380.368 60.166 380.272 59.542C380.164 58.858 380.11 58.168 380.11 57.472C380.11 56.74 380.152 56.032 380.236 55.348C380.332 54.568 380.464 53.854 380.632 53.206C380.824 52.474 381.046 51.784 381.298 51.136C381.514 50.584 381.856 49.906 382.324 49.102C382.708 48.442 383.176 47.752 383.728 47.032L384.376 47.482C384.436 47.518 384.484 47.566 384.52 47.626C384.544 47.674 384.556 47.716 384.556 47.752C384.556 47.884 384.514 48.016 384.43 48.148C383.65 49.288 383.032 50.44 382.576 51.604C382.096 52.828 381.778 54.076 381.622 55.348ZM391.158 59.956C391.326 59.992 391.398 60.1 391.374 60.28L391.284 61H384.372L384.444 60.46L384.462 60.28C384.486 60.1 384.582 59.992 384.75 59.956L387.288 59.776L388.368 50.992C388.416 50.632 388.458 50.362 388.494 50.182L385.956 52.144C385.824 52.24 385.71 52.288 385.614 52.288C385.41 52.288 385.272 52.222 385.2 52.09L384.786 51.388L389.034 48.076H390.33L388.89 59.776C389.094 59.8 389.418 59.824 389.862 59.848C390.654 59.896 391.086 59.932 391.158 59.956ZM398.7 59.956C398.868 59.992 398.94 60.1 398.916 60.28L398.826 61H391.914L391.986 60.46L392.004 60.28C392.028 60.1 392.124 59.992 392.292 59.956L394.83 59.776L395.91 50.992C395.958 50.632 396 50.362 396.036 50.182L393.498 52.144C393.366 52.24 393.252 52.288 393.156 52.288C392.952 52.288 392.814 52.222 392.742 52.09L392.328 51.388L396.576 48.076H397.872L396.432 59.776C396.636 59.8 396.96 59.824 397.404 59.848C398.196 59.896 398.628 59.932 398.7 59.956ZM402.011 55.348C402.083 54.748 402.119 54.166 402.119 53.602C402.119 52.966 402.071 52.3 401.975 51.604C401.795 50.356 401.459 49.204 400.967 48.148C400.931 48.052 400.913 47.968 400.913 47.896C400.913 47.776 400.943 47.686 401.003 47.626C401.075 47.554 401.135 47.506 401.183 47.482L401.957 47.032C402.305 47.716 402.599 48.406 402.839 49.102C403.091 49.834 403.265 50.512 403.361 51.136C403.481 51.892 403.541 52.582 403.541 53.206C403.541 53.854 403.493 54.562 403.397 55.33C403.301 56.122 403.169 56.836 403.001 57.472C402.797 58.24 402.575 58.93 402.335 59.542C402.071 60.178 401.729 60.856 401.309 61.576C400.913 62.26 400.445 62.944 399.905 63.628L399.257 63.196C399.197 63.16 399.149 63.112 399.113 63.052C399.077 62.992 399.065 62.926 399.077 62.854C399.077 62.83 399.089 62.782 399.113 62.71C399.125 62.686 399.143 62.656 399.167 62.62C399.179 62.596 399.191 62.572 399.203 62.548C399.935 61.492 400.553 60.334 401.057 59.074C401.525 57.91 401.843 56.668 402.011 55.348ZM413.598 47.968C414.162 47.968 414.66 48.046 415.092 48.202C415.536 48.358 415.908 48.58 416.208 48.868C416.496 49.132 416.712 49.48 416.856 49.912C416.952 50.2 417 50.488 417 50.776C417 50.884 416.988 51.046 416.964 51.262C416.904 51.682 416.808 52.048 416.676 52.36C416.556 52.636 416.37 52.918 416.118 53.206C415.926 53.434 415.668 53.638 415.344 53.818C415.044 53.986 414.714 54.124 414.354 54.232C415.17 54.448 415.758 54.82 416.118 55.348C416.406 55.756 416.55 56.254 416.55 56.842C416.55 57.586 416.358 58.276 415.974 58.912C415.662 59.416 415.308 59.818 414.912 60.118C414.48 60.442 413.994 60.694 413.454 60.874C412.914 61.054 412.344 61.144 411.744 61.144C411.024 61.144 410.448 61.06 410.016 60.892C409.548 60.712 409.17 60.478 408.882 60.19C408.582 59.89 408.348 59.53 408.18 59.11C408.012 58.69 407.886 58.246 407.802 57.778L408.504 57.49C408.612 57.442 408.744 57.418 408.9 57.418C409.02 57.418 409.122 57.442 409.206 57.49C409.29 57.538 409.35 57.616 409.386 57.724L409.422 57.796L409.44 57.886C409.464 57.958 409.542 58.156 409.674 58.48C409.758 58.672 409.896 58.876 410.088 59.092C410.268 59.296 410.502 59.458 410.79 59.578C411.09 59.71 411.456 59.776 411.888 59.776C412.344 59.776 412.752 59.704 413.112 59.56C413.46 59.416 413.766 59.224 414.03 58.984C414.282 58.756 414.48 58.492 414.624 58.192C414.768 57.904 414.858 57.622 414.894 57.346C414.906 57.238 414.912 57.088 414.912 56.896C414.912 56.668 414.9 56.5 414.876 56.392C414.828 56.116 414.69 55.864 414.462 55.636C414.27 55.444 413.958 55.282 413.526 55.15C413.13 55.03 412.584 54.97 411.888 54.97L412.032 53.8C412.536 53.8 413.01 53.74 413.454 53.62C413.85 53.512 414.186 53.356 414.462 53.152C414.738 52.948 414.948 52.714 415.092 52.45C415.236 52.174 415.326 51.868 415.362 51.532C415.386 51.34 415.398 51.208 415.398 51.136C415.398 50.932 415.368 50.74 415.308 50.56C415.212 50.272 415.08 50.044 414.912 49.876C414.744 49.708 414.516 49.576 414.228 49.48C413.94 49.384 413.646 49.336 413.346 49.336C413.046 49.336 412.74 49.384 412.428 49.48C412.188 49.552 411.93 49.684 411.654 49.876C411.426 50.056 411.222 50.26 411.042 50.488C410.874 50.704 410.73 50.962 410.61 51.262C410.538 51.454 410.454 51.58 410.358 51.64C410.25 51.712 410.124 51.748 409.98 51.748H409.764L408.954 51.604C409.122 50.992 409.344 50.47 409.62 50.038C409.908 49.594 410.262 49.216 410.682 48.904C411.114 48.592 411.564 48.358 412.032 48.202C412.512 48.046 413.034 47.968 413.598 47.968ZM423.248 47.968C423.812 47.968 424.31 48.046 424.742 48.202C425.186 48.358 425.558 48.58 425.858 48.868C426.146 49.132 426.362 49.48 426.506 49.912C426.602 50.2 426.65 50.488 426.65 50.776C426.65 50.884 426.638 51.046 426.614 51.262C426.554 51.682 426.458 52.048 426.326 52.36C426.206 52.636 426.02 52.918 425.768 53.206C425.576 53.434 425.318 53.638 424.994 53.818C424.694 53.986 424.364 54.124 424.004 54.232C424.82 54.448 425.408 54.82 425.768 55.348C426.056 55.756 426.2 56.254 426.2 56.842C426.2 57.586 426.008 58.276 425.624 58.912C425.312 59.416 424.958 59.818 424.562 60.118C424.13 60.442 423.644 60.694 423.104 60.874C422.564 61.054 421.994 61.144 421.394 61.144C420.674 61.144 420.098 61.06 419.666 60.892C419.198 60.712 418.82 60.478 418.532 60.19C418.232 59.89 417.998 59.53 417.83 59.11C417.662 58.69 417.536 58.246 417.452 57.778L418.154 57.49C418.262 57.442 418.394 57.418 418.55 57.418C418.67 57.418 418.772 57.442 418.856 57.49C418.94 57.538 419 57.616 419.036 57.724L419.072 57.796L419.09 57.886C419.114 57.958 419.192 58.156 419.324 58.48C419.408 58.672 419.546 58.876 419.738 59.092C419.918 59.296 420.152 59.458 420.44 59.578C420.74 59.71 421.106 59.776 421.538 59.776C421.994 59.776 422.402 59.704 422.762 59.56C423.11 59.416 423.416 59.224 423.68 58.984C423.932 58.756 424.13 58.492 424.274 58.192C424.418 57.904 424.508 57.622 424.544 57.346C424.556 57.238 424.562 57.088 424.562 56.896C424.562 56.668 424.55 56.5 424.526 56.392C424.478 56.116 424.34 55.864 424.112 55.636C423.92 55.444 423.608 55.282 423.176 55.15C422.78 55.03 422.234 54.97 421.538 54.97L421.682 53.8C422.186 53.8 422.66 53.74 423.104 53.62C423.5 53.512 423.836 53.356 424.112 53.152C424.388 52.948 424.598 52.714 424.742 52.45C424.886 52.174 424.976 51.868 425.012 51.532C425.036 51.34 425.048 51.208 425.048 51.136C425.048 50.932 425.018 50.74 424.958 50.56C424.862 50.272 424.73 50.044 424.562 49.876C424.394 49.708 424.166 49.576 423.878 49.48C423.59 49.384 423.296 49.336 422.996 49.336C422.696 49.336 422.39 49.384 422.078 49.48C421.838 49.552 421.58 49.684 421.304 49.876C421.076 50.056 420.872 50.26 420.692 50.488C420.524 50.704 420.38 50.962 420.26 51.262C420.188 51.454 420.104 51.58 420.008 51.64C419.9 51.712 419.774 51.748 419.63 51.748H419.414L418.604 51.604C418.772 50.992 418.994 50.47 419.27 50.038C419.558 49.594 419.912 49.216 420.332 48.904C420.764 48.592 421.214 48.358 421.682 48.202C422.162 48.046 422.684 47.968 423.248 47.968ZM437.201 54.556C437.057 55.708 436.817 56.686 436.481 57.49C436.145 58.294 435.725 58.978 435.221 59.542C434.741 60.082 434.195 60.484 433.583 60.748C432.983 61.012 432.353 61.144 431.693 61.144C431.033 61.144 430.439 61.012 429.911 60.748C429.383 60.484 428.939 60.082 428.579 59.542C428.231 59.026 427.985 58.342 427.841 57.49C427.769 57.07 427.733 56.62 427.733 56.14C427.733 55.636 427.769 55.108 427.841 54.556C427.985 53.404 428.225 52.426 428.561 51.622C428.909 50.794 429.323 50.11 429.803 49.57C430.283 49.042 430.823 48.64 431.423 48.364C431.999 48.1 432.629 47.968 433.313 47.968C433.985 47.968 434.585 48.1 435.113 48.364C435.641 48.628 436.085 49.03 436.445 49.57C436.805 50.11 437.057 50.794 437.201 51.622C437.273 52.03 437.309 52.48 437.309 52.972C437.309 53.452 437.273 53.98 437.201 54.556ZM435.527 54.556C435.599 53.98 435.635 53.458 435.635 52.99C435.635 52.642 435.617 52.336 435.581 52.072C435.485 51.388 435.329 50.854 435.113 50.47C434.873 50.05 434.591 49.756 434.267 49.588C433.931 49.408 433.559 49.318 433.151 49.318C432.767 49.318 432.377 49.408 431.981 49.588C431.573 49.768 431.213 50.062 430.901 50.47C430.565 50.89 430.277 51.424 430.037 52.072C429.809 52.672 429.629 53.5 429.497 54.556C429.425 55.132 429.389 55.654 429.389 56.122C429.389 56.458 429.407 56.764 429.443 57.04C429.539 57.748 429.689 58.282 429.893 58.642C430.121 59.05 430.409 59.344 430.757 59.524C431.105 59.704 431.477 59.794 431.873 59.794C432.257 59.794 432.647 59.704 433.043 59.524C433.451 59.344 433.811 59.05 434.123 58.642C434.459 58.222 434.747 57.688 434.987 57.04C435.215 56.44 435.395 55.612 435.527 54.556ZM443.639 47.968C444.203 47.968 444.701 48.046 445.133 48.202C445.577 48.358 445.949 48.58 446.249 48.868C446.537 49.132 446.753 49.48 446.897 49.912C446.993 50.2 447.041 50.488 447.041 50.776C447.041 50.884 447.029 51.046 447.005 51.262C446.945 51.682 446.849 52.048 446.717 52.36C446.597 52.636 446.411 52.918 446.159 53.206C445.967 53.434 445.709 53.638 445.385 53.818C445.085 53.986 444.755 54.124 444.395 54.232C445.211 54.448 445.799 54.82 446.159 55.348C446.447 55.756 446.591 56.254 446.591 56.842C446.591 57.586 446.399 58.276 446.015 58.912C445.703 59.416 445.349 59.818 444.953 60.118C444.521 60.442 444.035 60.694 443.495 60.874C442.955 61.054 442.385 61.144 441.785 61.144C441.065 61.144 440.489 61.06 440.057 60.892C439.589 60.712 439.211 60.478 438.923 60.19C438.623 59.89 438.389 59.53 438.221 59.11C438.053 58.69 437.927 58.246 437.843 57.778L438.545 57.49C438.653 57.442 438.785 57.418 438.941 57.418C439.061 57.418 439.163 57.442 439.247 57.49C439.331 57.538 439.391 57.616 439.427 57.724L439.463 57.796L439.481 57.886C439.505 57.958 439.583 58.156 439.715 58.48C439.799 58.672 439.937 58.876 440.129 59.092C440.309 59.296 440.543 59.458 440.831 59.578C441.131 59.71 441.497 59.776 441.929 59.776C442.385 59.776 442.793 59.704 443.153 59.56C443.501 59.416 443.807 59.224 444.071 58.984C444.323 58.756 444.521 58.492 444.665 58.192C444.809 57.904 444.899 57.622 444.935 57.346C444.947 57.238 444.953 57.088 444.953 56.896C444.953 56.668 444.941 56.5 444.917 56.392C444.869 56.116 444.731 55.864 444.503 55.636C444.311 55.444 443.999 55.282 443.567 55.15C443.171 55.03 442.625 54.97 441.929 54.97L442.073 53.8C442.577 53.8 443.051 53.74 443.495 53.62C443.891 53.512 444.227 53.356 444.503 53.152C444.779 52.948 444.989 52.714 445.133 52.45C445.277 52.174 445.367 51.868 445.403 51.532C445.427 51.34 445.439 51.208 445.439 51.136C445.439 50.932 445.409 50.74 445.349 50.56C445.253 50.272 445.121 50.044 444.953 49.876C444.785 49.708 444.557 49.576 444.269 49.48C443.981 49.384 443.687 49.336 443.387 49.336C443.087 49.336 442.781 49.384 442.469 49.48C442.229 49.552 441.971 49.684 441.695 49.876C441.467 50.056 441.263 50.26 441.083 50.488C440.915 50.704 440.771 50.962 440.651 51.262C440.579 51.454 440.495 51.58 440.399 51.64C440.291 51.712 440.165 51.748 440.021 51.748H439.805L438.995 51.604C439.163 50.992 439.385 50.47 439.661 50.038C439.949 49.594 440.303 49.216 440.723 48.904C441.155 48.592 441.605 48.358 442.073 48.202C442.553 48.046 443.075 47.968 443.639 47.968ZM452.965 56.284H448.501L448.681 54.916H453.127L452.965 56.284ZM456.356 59.686C456.884 59.554 457.37 59.488 457.814 59.488H461.36L461.576 58.444C461.6 58.36 461.648 58.288 461.72 58.228C461.804 58.168 461.894 58.138 461.99 58.138H462.854L462.638 59.884L462.512 61H453.908L453.98 60.442C454.016 60.178 454.142 59.956 454.358 59.776L459.002 55.618C459.686 55.006 460.208 54.496 460.568 54.088C460.94 53.68 461.246 53.206 461.486 52.666C461.702 52.162 461.81 51.676 461.81 51.208C461.81 51.016 461.78 50.812 461.72 50.596C461.588 50.188 461.354 49.876 461.018 49.66C460.682 49.444 460.256 49.336 459.74 49.336C459.236 49.336 458.786 49.444 458.39 49.66C457.994 49.864 457.67 50.14 457.418 50.488C457.226 50.74 457.088 50.998 457.004 51.262C456.932 51.43 456.848 51.556 456.752 51.64C456.656 51.724 456.524 51.766 456.356 51.766C456.272 51.766 456.206 51.76 456.158 51.748L455.33 51.604C455.558 50.752 455.936 50.038 456.464 49.462C456.992 48.874 457.646 48.454 458.426 48.202C458.906 48.046 459.428 47.968 459.992 47.968C460.856 47.968 461.57 48.148 462.134 48.508C462.71 48.868 463.1 49.378 463.304 50.038C463.4 50.314 463.448 50.644 463.448 51.028C463.448 51.352 463.406 51.682 463.322 52.018C463.25 52.342 463.154 52.63 463.034 52.882C462.746 53.482 462.38 54.022 461.936 54.502C461.504 54.982 460.916 55.558 460.172 56.23L456.356 59.686ZM466.182 59.686C466.71 59.554 467.196 59.488 467.64 59.488H471.186L471.402 58.444C471.426 58.36 471.474 58.288 471.546 58.228C471.63 58.168 471.72 58.138 471.816 58.138H472.68L472.464 59.884L472.338 61H463.734L463.806 60.442C463.842 60.178 463.968 59.956 464.184 59.776L468.828 55.618C469.512 55.006 470.034 54.496 470.394 54.088C470.766 53.68 471.072 53.206 471.312 52.666C471.528 52.162 471.636 51.676 471.636 51.208C471.636 51.016 471.606 50.812 471.546 50.596C471.414 50.188 471.18 49.876 470.844 49.66C470.508 49.444 470.082 49.336 469.566 49.336C469.062 49.336 468.612 49.444 468.216 49.66C467.82 49.864 467.496 50.14 467.244 50.488C467.052 50.74 466.914 50.998 466.83 51.262C466.758 51.43 466.674 51.556 466.578 51.64C466.482 51.724 466.35 51.766 466.182 51.766C466.098 51.766 466.032 51.76 465.984 51.748L465.156 51.604C465.384 50.752 465.762 50.038 466.29 49.462C466.818 48.874 467.472 48.454 468.252 48.202C468.732 48.046 469.254 47.968 469.818 47.968C470.682 47.968 471.396 48.148 471.96 48.508C472.536 48.868 472.926 49.378 473.13 50.038C473.226 50.314 473.274 50.644 473.274 51.028C473.274 51.352 473.232 51.682 473.148 52.018C473.076 52.342 472.98 52.63 472.86 52.882C472.572 53.482 472.206 54.022 471.762 54.502C471.33 54.982 470.742 55.558 469.998 56.23L466.182 59.686ZM479.428 47.968C479.992 47.968 480.49 48.046 480.922 48.202C481.366 48.358 481.738 48.58 482.038 48.868C482.326 49.132 482.542 49.48 482.686 49.912C482.782 50.2 482.83 50.488 482.83 50.776C482.83 50.884 482.818 51.046 482.794 51.262C482.734 51.682 482.638 52.048 482.506 52.36C482.386 52.636 482.2 52.918 481.948 53.206C481.756 53.434 481.498 53.638 481.174 53.818C480.874 53.986 480.544 54.124 480.184 54.232C481 54.448 481.588 54.82 481.948 55.348C482.236 55.756 482.38 56.254 482.38 56.842C482.38 57.586 482.188 58.276 481.804 58.912C481.492 59.416 481.138 59.818 480.742 60.118C480.31 60.442 479.824 60.694 479.284 60.874C478.744 61.054 478.174 61.144 477.574 61.144C476.854 61.144 476.278 61.06 475.846 60.892C475.378 60.712 475 60.478 474.712 60.19C474.412 59.89 474.178 59.53 474.01 59.11C473.842 58.69 473.716 58.246 473.632 57.778L474.334 57.49C474.442 57.442 474.574 57.418 474.73 57.418C474.85 57.418 474.952 57.442 475.036 57.49C475.12 57.538 475.18 57.616 475.216 57.724L475.252 57.796L475.27 57.886C475.294 57.958 475.372 58.156 475.504 58.48C475.588 58.672 475.726 58.876 475.918 59.092C476.098 59.296 476.332 59.458 476.62 59.578C476.92 59.71 477.286 59.776 477.718 59.776C478.174 59.776 478.582 59.704 478.942 59.56C479.29 59.416 479.596 59.224 479.86 58.984C480.112 58.756 480.31 58.492 480.454 58.192C480.598 57.904 480.688 57.622 480.724 57.346C480.736 57.238 480.742 57.088 480.742 56.896C480.742 56.668 480.73 56.5 480.706 56.392C480.658 56.116 480.52 55.864 480.292 55.636C480.1 55.444 479.788 55.282 479.356 55.15C478.96 55.03 478.414 54.97 477.718 54.97L477.862 53.8C478.366 53.8 478.84 53.74 479.284 53.62C479.68 53.512 480.016 53.356 480.292 53.152C480.568 52.948 480.778 52.714 480.922 52.45C481.066 52.174 481.156 51.868 481.192 51.532C481.216 51.34 481.228 51.208 481.228 51.136C481.228 50.932 481.198 50.74 481.138 50.56C481.042 50.272 480.91 50.044 480.742 49.876C480.574 49.708 480.346 49.576 480.058 49.48C479.77 49.384 479.476 49.336 479.176 49.336C478.876 49.336 478.57 49.384 478.258 49.48C478.018 49.552 477.76 49.684 477.484 49.876C477.256 50.056 477.052 50.26 476.872 50.488C476.704 50.704 476.56 50.962 476.44 51.262C476.368 51.454 476.284 51.58 476.188 51.64C476.08 51.712 475.954 51.748 475.81 51.748H475.594L474.784 51.604C474.952 50.992 475.174 50.47 475.45 50.038C475.738 49.594 476.092 49.216 476.512 48.904C476.944 48.592 477.394 48.358 477.862 48.202C478.342 48.046 478.864 47.968 479.428 47.968ZM493.02 57.256C492.996 57.376 492.96 57.46 492.912 57.508C492.84 57.58 492.744 57.616 492.624 57.616H491.022L490.608 61H489.204L489.618 57.616H483.894C483.774 57.616 483.678 57.58 483.606 57.508C483.522 57.424 483.474 57.34 483.462 57.256L483.408 56.428L490.698 48.112H492.192L491.184 56.356H493.146L493.02 57.256ZM490.428 51.028C490.452 50.812 490.476 50.644 490.5 50.524C490.548 50.284 490.59 50.098 490.626 49.966L485.154 56.356H489.78L490.428 51.028Z" fill="#FFF9F9"/>
<path d="M604.275 55.348C604.203 55.936 604.167 56.518 604.167 57.094C604.167 57.718 604.215 58.378 604.311 59.074C604.491 60.274 604.827 61.432 605.319 62.548C605.355 62.62 605.373 62.674 605.373 62.71V62.854C605.361 62.95 605.331 63.016 605.283 63.052C605.211 63.124 605.151 63.172 605.103 63.196L604.329 63.628C603.981 62.98 603.687 62.296 603.447 61.576C603.195 60.844 603.021 60.166 602.925 59.542C602.817 58.858 602.763 58.168 602.763 57.472C602.763 56.74 602.805 56.032 602.889 55.348C602.985 54.568 603.117 53.854 603.285 53.206C603.477 52.474 603.699 51.784 603.951 51.136C604.167 50.584 604.509 49.906 604.977 49.102C605.361 48.442 605.829 47.752 606.381 47.032L607.029 47.482C607.089 47.518 607.137 47.566 607.173 47.626C607.197 47.674 607.209 47.716 607.209 47.752C607.209 47.884 607.167 48.016 607.083 48.148C606.303 49.288 605.685 50.44 605.229 51.604C604.749 52.828 604.431 54.076 604.275 55.348ZM613.811 59.956C613.979 59.992 614.051 60.1 614.027 60.28L613.937 61H607.025L607.097 60.46L607.115 60.28C607.139 60.1 607.235 59.992 607.403 59.956L609.941 59.776L611.021 50.992C611.069 50.632 611.111 50.362 611.147 50.182L608.609 52.144C608.477 52.24 608.363 52.288 608.267 52.288C608.063 52.288 607.925 52.222 607.853 52.09L607.439 51.388L611.687 48.076H612.983L611.543 59.776C611.747 59.8 612.071 59.824 612.515 59.848C613.307 59.896 613.739 59.932 613.811 59.956ZM621.352 59.956C621.52 59.992 621.592 60.1 621.568 60.28L621.478 61H614.566L614.638 60.46L614.656 60.28C614.68 60.1 614.776 59.992 614.944 59.956L617.482 59.776L618.562 50.992C618.61 50.632 618.652 50.362 618.688 50.182L616.15 52.144C616.018 52.24 615.904 52.288 615.808 52.288C615.604 52.288 615.466 52.222 615.394 52.09L614.98 51.388L619.228 48.076H620.524L619.084 59.776C619.288 59.8 619.612 59.824 620.056 59.848C620.848 59.896 621.28 59.932 621.352 59.956ZM624.663 55.348C624.735 54.748 624.771 54.166 624.771 53.602C624.771 52.966 624.723 52.3 624.627 51.604C624.447 50.356 624.111 49.204 623.619 48.148C623.583 48.052 623.565 47.968 623.565 47.896C623.565 47.776 623.595 47.686 623.655 47.626C623.727 47.554 623.787 47.506 623.835 47.482L624.609 47.032C624.957 47.716 625.251 48.406 625.491 49.102C625.743 49.834 625.917 50.512 626.013 51.136C626.133 51.892 626.193 52.582 626.193 53.206C626.193 53.854 626.145 54.562 626.049 55.33C625.953 56.122 625.821 56.836 625.653 57.472C625.449 58.24 625.227 58.93 624.987 59.542C624.723 60.178 624.381 60.856 623.961 61.576C623.565 62.26 623.097 62.944 622.557 63.628L621.909 63.196C621.849 63.16 621.801 63.112 621.765 63.052C621.729 62.992 621.717 62.926 621.729 62.854C621.729 62.83 621.741 62.782 621.765 62.71C621.777 62.686 621.795 62.656 621.819 62.62C621.831 62.596 621.843 62.572 621.855 62.548C622.587 61.492 623.205 60.334 623.709 59.074C624.177 57.91 624.495 56.668 624.663 55.348ZM634.306 55.708C633.838 55.708 633.388 55.624 632.956 55.456C632.512 55.276 632.158 55.042 631.894 54.754C631.618 54.442 631.408 54.052 631.264 53.584C631.168 53.26 631.12 52.924 631.12 52.576C631.12 52.456 631.132 52.264 631.156 52C631.228 51.412 631.396 50.884 631.66 50.416C631.924 49.936 632.272 49.51 632.704 49.138C633.1 48.79 633.586 48.502 634.162 48.274C634.702 48.058 635.29 47.95 635.926 47.95C636.514 47.95 637.06 48.052 637.564 48.256C637.996 48.436 638.392 48.724 638.752 49.12C639.076 49.48 639.304 49.918 639.436 50.434C639.508 50.734 639.544 51.07 639.544 51.442C639.544 51.742 639.532 51.97 639.508 52.126C639.448 52.546 639.37 52.9 639.274 53.188C639.166 53.536 639.028 53.86 638.86 54.16C638.716 54.412 638.518 54.73 638.266 55.114C638.158 55.27 637.912 55.594 637.528 56.086L633.82 60.622C633.736 60.73 633.616 60.82 633.46 60.892C633.316 60.964 633.148 61 632.956 61H631.48L636.034 55.852C636.298 55.552 636.442 55.39 636.466 55.366L636.844 54.898C636.532 55.138 636.136 55.336 635.656 55.492C635.224 55.636 634.774 55.708 634.306 55.708ZM637.996 51.928C638.02 51.736 638.032 51.592 638.032 51.496C638.032 51.28 638.002 51.064 637.942 50.848C637.846 50.512 637.702 50.23 637.51 50.002C637.33 49.786 637.078 49.612 636.754 49.48C636.466 49.36 636.13 49.3 635.746 49.3C635.362 49.3 634.99 49.366 634.63 49.498C634.258 49.63 633.958 49.804 633.73 50.02C633.466 50.272 633.256 50.548 633.1 50.848C632.932 51.172 632.824 51.52 632.776 51.892C632.752 52.108 632.74 52.264 632.74 52.36C632.74 52.516 632.764 52.726 632.812 52.99C632.884 53.302 633.022 53.572 633.226 53.8C633.442 54.04 633.688 54.208 633.964 54.304C634.276 54.412 634.618 54.466 634.99 54.466C635.458 54.466 635.848 54.4 636.16 54.268C636.52 54.112 636.826 53.92 637.078 53.692C637.342 53.452 637.552 53.182 637.708 52.882C637.864 52.594 637.96 52.276 637.996 51.928ZM643.658 55.708C643.19 55.708 642.74 55.624 642.308 55.456C641.864 55.276 641.51 55.042 641.246 54.754C640.97 54.442 640.76 54.052 640.616 53.584C640.52 53.26 640.472 52.924 640.472 52.576C640.472 52.456 640.484 52.264 640.508 52C640.58 51.412 640.748 50.884 641.012 50.416C641.276 49.936 641.624 49.51 642.056 49.138C642.452 48.79 642.938 48.502 643.514 48.274C644.054 48.058 644.642 47.95 645.278 47.95C645.866 47.95 646.412 48.052 646.916 48.256C647.348 48.436 647.744 48.724 648.104 49.12C648.428 49.48 648.656 49.918 648.788 50.434C648.86 50.734 648.896 51.07 648.896 51.442C648.896 51.742 648.884 51.97 648.86 52.126C648.8 52.546 648.722 52.9 648.626 53.188C648.518 53.536 648.38 53.86 648.212 54.16C648.068 54.412 647.87 54.73 647.618 55.114C647.51 55.27 647.264 55.594 646.88 56.086L643.172 60.622C643.088 60.73 642.968 60.82 642.812 60.892C642.668 60.964 642.5 61 642.308 61H640.832L645.386 55.852C645.65 55.552 645.794 55.39 645.818 55.366L646.196 54.898C645.884 55.138 645.488 55.336 645.008 55.492C644.576 55.636 644.126 55.708 643.658 55.708ZM647.348 51.928C647.372 51.736 647.384 51.592 647.384 51.496C647.384 51.28 647.354 51.064 647.294 50.848C647.198 50.512 647.054 50.23 646.862 50.002C646.682 49.786 646.43 49.612 646.106 49.48C645.818 49.36 645.482 49.3 645.098 49.3C644.714 49.3 644.342 49.366 643.982 49.498C643.61 49.63 643.31 49.804 643.082 50.02C642.818 50.272 642.608 50.548 642.452 50.848C642.284 51.172 642.176 51.52 642.128 51.892C642.104 52.108 642.092 52.264 642.092 52.36C642.092 52.516 642.116 52.726 642.164 52.99C642.236 53.302 642.374 53.572 642.578 53.8C642.794 54.04 643.04 54.208 643.316 54.304C643.628 54.412 643.97 54.466 644.342 54.466C644.81 54.466 645.2 54.4 645.512 54.268C645.872 54.112 646.178 53.92 646.43 53.692C646.694 53.452 646.904 53.182 647.06 52.882C647.216 52.594 647.312 52.276 647.348 51.928ZM656.033 59.956C656.201 59.992 656.273 60.1 656.249 60.28L656.159 61H649.247L649.319 60.46L649.337 60.28C649.361 60.1 649.457 59.992 649.625 59.956L652.163 59.776L653.243 50.992C653.291 50.632 653.333 50.362 653.369 50.182L650.831 52.144C650.699 52.24 650.585 52.288 650.489 52.288C650.285 52.288 650.147 52.222 650.075 52.09L649.661 51.388L653.909 48.076H655.205L653.765 59.776C653.969 59.8 654.293 59.824 654.737 59.848C655.529 59.896 655.961 59.932 656.033 59.956ZM665.807 48.796C665.771 49.048 665.675 49.24 665.519 49.372C665.363 49.516 665.111 49.588 664.763 49.588H660.713L659.705 52.972C660.389 52.828 661.019 52.756 661.595 52.756C662.291 52.756 662.873 52.852 663.341 53.044C663.809 53.236 664.205 53.512 664.529 53.872C664.817 54.196 665.027 54.604 665.159 55.096C665.231 55.384 665.267 55.69 665.267 56.014C665.267 56.29 665.255 56.5 665.231 56.644C665.135 57.352 664.943 57.97 664.655 58.498C664.355 59.038 663.965 59.512 663.485 59.92C663.041 60.304 662.513 60.604 661.901 60.82C661.313 61.036 660.695 61.144 660.047 61.144C659.675 61.144 659.315 61.108 658.967 61.036C658.667 60.976 658.355 60.874 658.031 60.73C657.731 60.598 657.467 60.454 657.239 60.298C657.047 60.166 656.843 59.992 656.627 59.776L657.203 59.092C657.323 58.936 657.473 58.858 657.653 58.858C657.761 58.858 657.893 58.906 658.049 59.002C658.313 59.17 658.481 59.272 658.553 59.308C658.841 59.464 659.081 59.572 659.273 59.632C659.585 59.728 659.927 59.776 660.299 59.776C660.755 59.776 661.169 59.704 661.541 59.56C661.913 59.416 662.249 59.206 662.549 58.93C662.849 58.654 663.083 58.336 663.251 57.976C663.443 57.58 663.563 57.16 663.611 56.716C663.635 56.5 663.647 56.35 663.647 56.266C663.647 56.11 663.623 55.9 663.575 55.636C663.503 55.324 663.359 55.048 663.143 54.808C662.927 54.568 662.651 54.388 662.315 54.268C661.991 54.148 661.583 54.088 661.091 54.088C660.743 54.088 660.407 54.112 660.083 54.16C659.711 54.22 659.339 54.31 658.967 54.43L657.995 54.124L659.777 48.112H665.897L665.807 48.796ZM675.823 48.832C675.787 49.096 675.679 49.372 675.499 49.66L668.839 60.424C668.599 60.808 668.287 61 667.903 61H666.751L673.483 50.362C673.723 50.002 673.921 49.744 674.077 49.588H668.317C668.149 50.44 668.053 50.89 668.029 50.938C667.957 51.142 667.825 51.244 667.633 51.244H666.751L667.129 48.112H675.895L675.823 48.832ZM681.313 56.284H676.849L677.029 54.916H681.475L681.313 56.284ZM684.703 59.686C685.231 59.554 685.717 59.488 686.161 59.488H689.707L689.923 58.444C689.947 58.36 689.995 58.288 690.067 58.228C690.151 58.168 690.241 58.138 690.337 58.138H691.201L690.985 59.884L690.859 61H682.255L682.327 60.442C682.363 60.178 682.489 59.956 682.705 59.776L687.349 55.618C688.033 55.006 688.555 54.496 688.915 54.088C689.287 53.68 689.593 53.206 689.833 52.666C690.049 52.162 690.157 51.676 690.157 51.208C690.157 51.016 690.127 50.812 690.067 50.596C689.935 50.188 689.701 49.876 689.365 49.66C689.029 49.444 688.603 49.336 688.087 49.336C687.583 49.336 687.133 49.444 686.737 49.66C686.341 49.864 686.017 50.14 685.765 50.488C685.573 50.74 685.435 50.998 685.351 51.262C685.279 51.43 685.195 51.556 685.099 51.64C685.003 51.724 684.871 51.766 684.703 51.766C684.619 51.766 684.553 51.76 684.505 51.748L683.677 51.604C683.905 50.752 684.283 50.038 684.811 49.462C685.339 48.874 685.993 48.454 686.773 48.202C687.253 48.046 687.775 47.968 688.339 47.968C689.203 47.968 689.917 48.148 690.481 48.508C691.057 48.868 691.447 49.378 691.651 50.038C691.747 50.314 691.795 50.644 691.795 51.028C691.795 51.352 691.753 51.682 691.669 52.018C691.597 52.342 691.501 52.63 691.381 52.882C691.093 53.482 690.727 54.022 690.283 54.502C689.851 54.982 689.263 55.558 688.519 56.23L684.703 59.686ZM694.53 59.686C695.058 59.554 695.544 59.488 695.988 59.488H699.534L699.75 58.444C699.774 58.36 699.822 58.288 699.894 58.228C699.978 58.168 700.068 58.138 700.164 58.138H701.028L700.812 59.884L700.686 61H692.082L692.154 60.442C692.19 60.178 692.316 59.956 692.532 59.776L697.176 55.618C697.86 55.006 698.382 54.496 698.742 54.088C699.114 53.68 699.42 53.206 699.66 52.666C699.876 52.162 699.984 51.676 699.984 51.208C699.984 51.016 699.954 50.812 699.894 50.596C699.762 50.188 699.528 49.876 699.192 49.66C698.856 49.444 698.43 49.336 697.914 49.336C697.41 49.336 696.96 49.444 696.564 49.66C696.168 49.864 695.844 50.14 695.592 50.488C695.4 50.74 695.262 50.998 695.178 51.262C695.106 51.43 695.022 51.556 694.926 51.64C694.83 51.724 694.698 51.766 694.53 51.766C694.446 51.766 694.38 51.76 694.332 51.748L693.504 51.604C693.732 50.752 694.11 50.038 694.638 49.462C695.166 48.874 695.82 48.454 696.6 48.202C697.08 48.046 697.602 47.968 698.166 47.968C699.03 47.968 699.744 48.148 700.308 48.508C700.884 48.868 701.274 49.378 701.478 50.038C701.574 50.314 701.622 50.644 701.622 51.028C701.622 51.352 701.58 51.682 701.496 52.018C701.424 52.342 701.328 52.63 701.208 52.882C700.92 53.482 700.554 54.022 700.11 54.502C699.678 54.982 699.09 55.558 698.346 56.23L694.53 59.686ZM707.776 47.968C708.34 47.968 708.838 48.046 709.27 48.202C709.714 48.358 710.086 48.58 710.386 48.868C710.674 49.132 710.89 49.48 711.034 49.912C711.13 50.2 711.178 50.488 711.178 50.776C711.178 50.884 711.166 51.046 711.142 51.262C711.082 51.682 710.986 52.048 710.854 52.36C710.734 52.636 710.548 52.918 710.296 53.206C710.104 53.434 709.846 53.638 709.522 53.818C709.222 53.986 708.892 54.124 708.532 54.232C709.348 54.448 709.936 54.82 710.296 55.348C710.584 55.756 710.728 56.254 710.728 56.842C710.728 57.586 710.536 58.276 710.152 58.912C709.84 59.416 709.486 59.818 709.09 60.118C708.658 60.442 708.172 60.694 707.632 60.874C707.092 61.054 706.522 61.144 705.922 61.144C705.202 61.144 704.626 61.06 704.194 60.892C703.726 60.712 703.348 60.478 703.06 60.19C702.76 59.89 702.526 59.53 702.358 59.11C702.19 58.69 702.064 58.246 701.98 57.778L702.682 57.49C702.79 57.442 702.922 57.418 703.078 57.418C703.198 57.418 703.3 57.442 703.384 57.49C703.468 57.538 703.528 57.616 703.564 57.724L703.6 57.796L703.618 57.886C703.642 57.958 703.72 58.156 703.852 58.48C703.936 58.672 704.074 58.876 704.266 59.092C704.446 59.296 704.68 59.458 704.968 59.578C705.268 59.71 705.634 59.776 706.066 59.776C706.522 59.776 706.93 59.704 707.29 59.56C707.638 59.416 707.944 59.224 708.208 58.984C708.46 58.756 708.658 58.492 708.802 58.192C708.946 57.904 709.036 57.622 709.072 57.346C709.084 57.238 709.09 57.088 709.09 56.896C709.09 56.668 709.078 56.5 709.054 56.392C709.006 56.116 708.868 55.864 708.64 55.636C708.448 55.444 708.136 55.282 707.704 55.15C707.308 55.03 706.762 54.97 706.066 54.97L706.21 53.8C706.714 53.8 707.188 53.74 707.632 53.62C708.028 53.512 708.364 53.356 708.64 53.152C708.916 52.948 709.126 52.714 709.27 52.45C709.414 52.174 709.504 51.868 709.54 51.532C709.564 51.34 709.576 51.208 709.576 51.136C709.576 50.932 709.546 50.74 709.486 50.56C709.39 50.272 709.258 50.044 709.09 49.876C708.922 49.708 708.694 49.576 708.406 49.48C708.118 49.384 707.824 49.336 707.524 49.336C707.224 49.336 706.918 49.384 706.606 49.48C706.366 49.552 706.108 49.684 705.832 49.876C705.604 50.056 705.4 50.26 705.22 50.488C705.052 50.704 704.908 50.962 704.788 51.262C704.716 51.454 704.632 51.58 704.536 51.64C704.428 51.712 704.302 51.748 704.158 51.748H703.942L703.132 51.604C703.3 50.992 703.522 50.47 703.798 50.038C704.086 49.594 704.44 49.216 704.86 48.904C705.292 48.592 705.742 48.358 706.21 48.202C706.69 48.046 707.212 47.968 707.776 47.968ZM721.368 57.256C721.344 57.376 721.308 57.46 721.26 57.508C721.188 57.58 721.092 57.616 720.972 57.616H719.37L718.956 61H717.552L717.966 57.616H712.242C712.122 57.616 712.026 57.58 711.954 57.508C711.87 57.424 711.822 57.34 711.81 57.256L711.756 56.428L719.046 48.112H720.54L719.532 56.356H721.494L721.368 57.256ZM718.776 51.028C718.8 50.812 718.824 50.644 718.848 50.524C718.896 50.284 718.938 50.098 718.974 49.966L713.502 56.356H718.128L718.776 51.028Z" fill="#FFF9F9"/>
<path d="M88.8886 32.792C89.0326 32.828 89.0986 32.924 89.0866 33.08L89.0146 33.8H85.3066L85.3966 33.08C85.4086 32.924 85.4986 32.828 85.6666 32.792L86.4406 32.576L85.7566 29.984H80.1946L78.8626 32.576L79.5646 32.792C79.7206 32.828 79.7926 32.924 79.7806 33.08L79.6906 33.8H75.9826L76.0726 33.08C76.0846 32.924 76.1746 32.828 76.3426 32.792L77.0986 32.576L83.2006 20.912H84.9646L88.2046 32.576L88.8886 32.792ZM84.1186 23.756C84.0346 23.468 83.9566 23.066 83.8846 22.55C83.6566 23.102 83.4766 23.51 83.3446 23.774L80.8246 28.724H85.4146L84.1186 23.756ZM92.8602 33.944C92.1522 33.944 91.6242 33.74 91.2762 33.332C91.0002 33.02 90.8622 32.594 90.8622 32.054C90.8622 31.97 90.8742 31.82 90.8982 31.604L91.5822 26.024H90.4842C90.3882 26.024 90.3102 25.994 90.2502 25.934C90.2022 25.874 90.1842 25.784 90.1962 25.664L90.2682 25.034L91.7802 24.836L92.5002 22.028C92.5122 21.944 92.5602 21.872 92.6442 21.812C92.7282 21.752 92.8182 21.722 92.9142 21.722H93.7242L93.3282 24.872H95.9382L95.7942 26.024H93.1842L92.5182 31.496C92.5062 31.556 92.5002 31.634 92.5002 31.73C92.5002 31.994 92.5662 32.204 92.6982 32.36C92.8662 32.54 93.0942 32.63 93.3822 32.63C93.5022 32.63 93.6462 32.606 93.8142 32.558C93.9462 32.522 94.0602 32.474 94.1562 32.414L94.4082 32.27C94.5042 32.222 94.5642 32.198 94.5882 32.198C94.6722 32.198 94.7382 32.252 94.7862 32.36L95.1642 33.116C94.8282 33.392 94.4682 33.596 94.0842 33.728C93.6762 33.872 93.2682 33.944 92.8602 33.944ZM103.107 32.108C102.543 32.696 101.973 33.146 101.397 33.458C100.821 33.77 100.113 33.926 99.2726 33.926C98.4566 33.926 97.7906 33.734 97.2746 33.35C96.7586 32.966 96.3866 32.438 96.1586 31.766C96.0026 31.334 95.9246 30.824 95.9246 30.236C95.9246 28.76 96.3506 27.458 97.2026 26.33C98.0906 25.154 99.2426 24.566 100.659 24.566C101.271 24.566 101.793 24.686 102.225 24.926C102.669 25.166 102.981 25.502 103.161 25.934C103.269 26.186 103.323 26.42 103.323 26.636C103.323 27.116 103.227 27.512 103.035 27.824C102.855 28.136 102.573 28.406 102.189 28.634C101.757 28.898 101.163 29.132 100.407 29.336C99.7226 29.516 98.7506 29.672 97.4906 29.804V30.2C97.4906 31.844 98.1926 32.666 99.5966 32.666C100.305 32.666 100.917 32.468 101.433 32.072C101.793 31.796 102.021 31.628 102.117 31.568C102.213 31.508 102.309 31.478 102.405 31.478C102.525 31.478 102.627 31.526 102.711 31.622L103.107 32.108ZM101.883 26.708C101.883 26.396 101.757 26.156 101.505 25.988C101.253 25.808 100.941 25.718 100.569 25.718C99.9686 25.718 99.4586 25.892 99.0386 26.24C98.6306 26.576 98.3006 27.014 98.0486 27.554C97.8566 27.938 97.7186 28.334 97.6346 28.742C98.4866 28.646 99.2306 28.514 99.8666 28.346C100.383 28.214 100.809 28.058 101.145 27.878C101.397 27.734 101.583 27.578 101.703 27.41C101.823 27.23 101.883 26.996 101.883 26.708ZM113.335 32.702C113.515 32.738 113.593 32.846 113.569 33.026L113.479 33.8H110.563L111.283 28.004C111.307 27.764 111.319 27.596 111.319 27.5C111.319 26.372 110.755 25.808 109.627 25.808C108.763 25.808 107.893 26.234 107.017 27.086L106.189 33.8H104.587L105.541 25.988L104.533 25.79C104.365 25.754 104.293 25.64 104.317 25.448L104.407 24.674H106.657C106.885 24.674 107.017 24.788 107.053 25.016V26.006C108.073 25.022 109.141 24.53 110.257 24.53C111.121 24.53 111.781 24.776 112.237 25.268C112.693 25.76 112.921 26.444 112.921 27.32C112.921 27.608 112.909 27.83 112.885 27.986L112.327 32.486C112.651 32.546 112.885 32.594 113.029 32.63C113.185 32.666 113.287 32.69 113.335 32.702ZM118.989 24.512C120.009 24.512 120.795 24.872 121.347 25.592L121.815 21.848L120.627 21.65C120.447 21.614 120.369 21.5 120.393 21.308L120.501 20.534H123.579L122.103 32.486L123.111 32.684C123.279 32.72 123.351 32.834 123.327 33.026L123.237 33.8H120.987C120.759 33.8 120.627 33.692 120.591 33.476V32.36C119.607 33.404 118.521 33.926 117.333 33.926C116.265 33.926 115.479 33.53 114.975 32.738C114.579 32.126 114.381 31.322 114.381 30.326C114.381 29.954 114.405 29.6 114.453 29.264C114.609 27.908 115.101 26.78 115.929 25.88C116.757 24.968 117.777 24.512 118.989 24.512ZM118.035 32.63C118.959 32.63 119.829 32.168 120.645 31.244L121.203 26.852C120.771 26.132 120.111 25.772 119.223 25.772C118.335 25.772 117.633 26.072 117.117 26.672C116.589 27.296 116.253 28.16 116.109 29.264C116.061 29.72 116.037 30.038 116.037 30.218C116.037 31.37 116.379 32.108 117.063 32.432C117.351 32.564 117.675 32.63 118.035 32.63ZM128.204 21.38C128.252 21.5 128.264 21.65 128.24 21.83C128.228 21.95 128.18 22.094 128.096 22.262C128.036 22.37 127.934 22.49 127.79 22.622C127.646 22.742 127.514 22.826 127.394 22.874C127.238 22.934 127.088 22.964 126.944 22.964C126.812 22.964 126.674 22.934 126.53 22.874C126.398 22.814 126.284 22.73 126.188 22.622C126.092 22.502 126.026 22.382 125.99 22.262C125.966 22.142 125.954 22.04 125.954 21.956C125.954 21.764 126.002 21.572 126.098 21.38C126.17 21.224 126.266 21.098 126.386 21.002C126.506 20.906 126.638 20.828 126.782 20.768C126.938 20.708 127.088 20.678 127.232 20.678C127.376 20.678 127.52 20.708 127.664 20.768C127.796 20.828 127.904 20.906 127.988 21.002C128.072 21.11 128.144 21.236 128.204 21.38ZM127.574 32.684C127.658 32.696 127.718 32.738 127.754 32.81C127.802 32.87 127.82 32.942 127.808 33.026L127.718 33.8H124.802L124.964 32.486L125.774 25.988L124.766 25.79C124.682 25.778 124.616 25.742 124.568 25.682C124.532 25.622 124.52 25.55 124.532 25.466L124.622 24.692H127.538L126.566 32.486L127.574 32.684ZM136.574 26.438C136.85 25.898 137.252 25.448 137.78 25.088C138.32 24.716 138.926 24.53 139.598 24.53C140.522 24.53 141.218 24.764 141.686 25.232C142.154 25.7 142.388 26.378 142.388 27.266C142.388 27.494 142.37 27.734 142.334 27.986L141.776 32.486L142.784 32.684C142.964 32.72 143.042 32.834 143.018 33.026L142.928 33.8H140.012L140.732 27.986C140.756 27.77 140.768 27.608 140.768 27.5C140.768 26.96 140.636 26.546 140.372 26.258C140.108 25.958 139.706 25.808 139.166 25.808C138.554 25.808 138.044 26.018 137.636 26.438C137.24 26.846 137.006 27.362 136.934 27.986L136.232 33.8H134.63L135.332 27.986C135.356 27.722 135.368 27.536 135.368 27.428C135.368 26.348 134.87 25.808 133.874 25.808C133.13 25.808 132.404 26.204 131.696 26.996L130.868 33.8H129.266L130.22 25.988L129.212 25.79C129.044 25.754 128.972 25.64 128.996 25.448L129.086 24.674H131.336C131.564 24.674 131.696 24.788 131.732 25.016V25.952C132.62 25.004 133.538 24.53 134.486 24.53C135.098 24.53 135.572 24.704 135.908 25.052C136.256 25.388 136.478 25.85 136.574 26.438ZM151.042 32.108C150.478 32.696 149.908 33.146 149.332 33.458C148.756 33.77 148.048 33.926 147.208 33.926C146.392 33.926 145.726 33.734 145.21 33.35C144.694 32.966 144.322 32.438 144.094 31.766C143.938 31.334 143.86 30.824 143.86 30.236C143.86 28.76 144.286 27.458 145.138 26.33C146.026 25.154 147.178 24.566 148.594 24.566C149.206 24.566 149.728 24.686 150.16 24.926C150.604 25.166 150.916 25.502 151.096 25.934C151.204 26.186 151.258 26.42 151.258 26.636C151.258 27.116 151.162 27.512 150.97 27.824C150.79 28.136 150.508 28.406 150.124 28.634C149.692 28.898 149.098 29.132 148.342 29.336C147.658 29.516 146.686 29.672 145.426 29.804V30.2C145.426 31.844 146.128 32.666 147.532 32.666C148.24 32.666 148.852 32.468 149.368 32.072C149.728 31.796 149.956 31.628 150.052 31.568C150.148 31.508 150.244 31.478 150.34 31.478C150.46 31.478 150.562 31.526 150.646 31.622L151.042 32.108ZM149.818 26.708C149.818 26.396 149.692 26.156 149.44 25.988C149.188 25.808 148.876 25.718 148.504 25.718C147.904 25.718 147.394 25.892 146.974 26.24C146.566 26.576 146.236 27.014 145.984 27.554C145.792 27.938 145.654 28.334 145.57 28.742C146.422 28.646 147.166 28.514 147.802 28.346C148.318 28.214 148.744 28.058 149.08 27.878C149.332 27.734 149.518 27.578 149.638 27.41C149.758 27.23 149.818 26.996 149.818 26.708ZM161.27 32.702C161.45 32.738 161.528 32.846 161.504 33.026L161.414 33.8H158.498L159.218 28.004C159.242 27.764 159.254 27.596 159.254 27.5C159.254 26.372 158.69 25.808 157.562 25.808C156.698 25.808 155.828 26.234 154.952 27.086L154.124 33.8H152.522L153.476 25.988L152.468 25.79C152.3 25.754 152.228 25.64 152.252 25.448L152.342 24.674H154.592C154.82 24.674 154.952 24.788 154.988 25.016V26.006C156.008 25.022 157.076 24.53 158.192 24.53C159.056 24.53 159.716 24.776 160.172 25.268C160.628 25.76 160.856 26.444 160.856 27.32C160.856 27.608 160.844 27.83 160.82 27.986L160.262 32.486C160.586 32.546 160.82 32.594 160.964 32.63C161.12 32.666 161.222 32.69 161.27 32.702ZM165.106 33.944C164.398 33.944 163.87 33.74 163.522 33.332C163.246 33.02 163.108 32.594 163.108 32.054C163.108 31.97 163.12 31.82 163.144 31.604L163.828 26.024H162.73C162.634 26.024 162.556 25.994 162.496 25.934C162.448 25.874 162.43 25.784 162.442 25.664L162.514 25.034L164.026 24.836L164.746 22.028C164.758 21.944 164.806 21.872 164.89 21.812C164.974 21.752 165.064 21.722 165.16 21.722H165.97L165.574 24.872H168.184L168.04 26.024H165.43L164.764 31.496C164.752 31.556 164.746 31.634 164.746 31.73C164.746 31.994 164.812 32.204 164.944 32.36C165.112 32.54 165.34 32.63 165.628 32.63C165.748 32.63 165.892 32.606 166.06 32.558C166.192 32.522 166.306 32.474 166.402 32.414L166.654 32.27C166.75 32.222 166.81 32.198 166.834 32.198C166.918 32.198 166.984 32.252 167.032 32.36L167.41 33.116C167.074 33.392 166.714 33.596 166.33 33.728C165.922 33.872 165.514 33.944 165.106 33.944ZM173.35 24.548C174.022 24.548 174.61 24.656 175.114 24.872C175.642 25.1 176.062 25.412 176.374 25.808C176.71 26.228 176.938 26.726 177.058 27.302C177.13 27.638 177.166 27.992 177.166 28.364C177.166 28.628 177.148 28.916 177.112 29.228C177.016 29.948 176.836 30.596 176.572 31.172C176.308 31.748 175.96 32.24 175.528 32.648C175.084 33.08 174.592 33.398 174.052 33.602C173.5 33.818 172.882 33.926 172.198 33.926C171.526 33.926 170.938 33.818 170.434 33.602C169.942 33.386 169.528 33.068 169.192 32.648C168.844 32.204 168.61 31.712 168.49 31.172C168.406 30.752 168.364 30.368 168.364 30.02C168.364 29.756 168.382 29.492 168.418 29.228C168.502 28.556 168.688 27.914 168.976 27.302C169.252 26.702 169.6 26.204 170.02 25.808C170.44 25.412 170.938 25.1 171.514 24.872C172.078 24.656 172.69 24.548 173.35 24.548ZM172.36 32.666C173.26 32.666 173.968 32.366 174.484 31.766C175.012 31.154 175.336 30.314 175.456 29.246C175.492 28.934 175.51 28.652 175.51 28.4C175.51 27.716 175.378 27.152 175.114 26.708C174.742 26.096 174.106 25.79 173.206 25.79C172.738 25.79 172.33 25.868 171.982 26.024C171.658 26.168 171.352 26.396 171.064 26.708C170.812 26.972 170.602 27.332 170.434 27.788C170.266 28.244 170.146 28.73 170.074 29.246C170.038 29.498 170.02 29.738 170.02 29.966C170.02 30.218 170.038 30.464 170.074 30.704C170.134 31.148 170.254 31.502 170.434 31.766C170.626 32.054 170.884 32.276 171.208 32.432C171.52 32.588 171.904 32.666 172.36 32.666ZM181.119 33.8L181.227 33.026C181.239 32.942 181.269 32.87 181.317 32.81C181.377 32.738 181.449 32.696 181.533 32.684L182.595 32.486L183.855 22.208L182.847 22.01C182.763 21.998 182.697 21.962 182.649 21.902C182.613 21.842 182.601 21.77 182.613 21.686L182.703 20.912H187.059L186.951 21.686C186.939 21.77 186.903 21.842 186.843 21.902C186.795 21.95 186.729 21.986 186.645 22.01L185.601 22.208L184.359 32.324H189.003L189.219 31.298C189.243 31.214 189.291 31.142 189.363 31.082C189.447 31.022 189.537 30.992 189.633 30.992H190.515L190.155 33.8H181.119ZM196.465 24.548C197.137 24.548 197.725 24.656 198.229 24.872C198.757 25.1 199.177 25.412 199.489 25.808C199.825 26.228 200.053 26.726 200.173 27.302C200.245 27.638 200.281 27.992 200.281 28.364C200.281 28.628 200.263 28.916 200.227 29.228C200.131 29.948 199.951 30.596 199.687 31.172C199.423 31.748 199.075 32.24 198.643 32.648C198.199 33.08 197.707 33.398 197.167 33.602C196.615 33.818 195.997 33.926 195.313 33.926C194.641 33.926 194.053 33.818 193.549 33.602C193.057 33.386 192.643 33.068 192.307 32.648C191.959 32.204 191.725 31.712 191.605 31.172C191.521 30.752 191.479 30.368 191.479 30.02C191.479 29.756 191.497 29.492 191.533 29.228C191.617 28.556 191.803 27.914 192.091 27.302C192.367 26.702 192.715 26.204 193.135 25.808C193.555 25.412 194.053 25.1 194.629 24.872C195.193 24.656 195.805 24.548 196.465 24.548ZM195.475 32.666C196.375 32.666 197.083 32.366 197.599 31.766C198.127 31.154 198.451 30.314 198.571 29.246C198.607 28.934 198.625 28.652 198.625 28.4C198.625 27.716 198.493 27.152 198.229 26.708C197.857 26.096 197.221 25.79 196.321 25.79C195.853 25.79 195.445 25.868 195.097 26.024C194.773 26.168 194.467 26.396 194.179 26.708C193.927 26.972 193.717 27.332 193.549 27.788C193.381 28.244 193.261 28.73 193.189 29.246C193.153 29.498 193.135 29.738 193.135 29.966C193.135 30.218 193.153 30.464 193.189 30.704C193.249 31.148 193.369 31.502 193.549 31.766C193.741 32.054 193.999 32.276 194.323 32.432C194.635 32.588 195.019 32.666 195.475 32.666ZM205.061 21.38C205.109 21.5 205.121 21.65 205.097 21.83C205.085 21.95 205.037 22.094 204.953 22.262C204.893 22.37 204.791 22.49 204.647 22.622C204.503 22.742 204.371 22.826 204.251 22.874C204.095 22.934 203.945 22.964 203.801 22.964C203.657 22.964 203.513 22.934 203.369 22.874C203.249 22.826 203.141 22.742 203.045 22.622C202.937 22.502 202.871 22.382 202.847 22.262C202.823 22.118 202.811 22.016 202.811 21.956C202.811 21.764 202.859 21.572 202.955 21.38C203.027 21.224 203.123 21.098 203.243 21.002C203.363 20.906 203.495 20.828 203.639 20.768C203.831 20.696 203.981 20.66 204.089 20.66C204.209 20.66 204.353 20.696 204.521 20.768C204.653 20.828 204.761 20.906 204.845 21.002C204.929 21.11 205.001 21.236 205.061 21.38ZM201.497 36.878C201.137 37.01 200.759 37.076 200.363 37.076C199.931 37.076 199.571 37.016 199.283 36.896L199.463 36.032C199.499 35.912 199.601 35.852 199.769 35.852H200.111C200.591 35.852 200.939 35.744 201.155 35.528C201.395 35.288 201.539 34.934 201.587 34.466L202.613 26.006L201.623 25.79C201.443 25.754 201.365 25.646 201.389 25.466L201.479 24.692H204.377L203.189 34.484C203.045 35.684 202.481 36.482 201.497 36.878ZM211.257 33.8C210.897 33.8 210.717 33.614 210.717 33.242L210.879 31.424C210.219 32.6 209.433 33.374 208.521 33.746C208.233 33.866 207.915 33.926 207.567 33.926C206.763 33.926 206.163 33.632 205.767 33.044C205.383 32.444 205.191 31.67 205.191 30.722C205.191 29.066 205.743 27.632 206.847 26.42C207.975 25.184 209.343 24.566 210.951 24.566C211.815 24.566 212.559 24.704 213.183 24.98L212.247 32.486L213.273 32.684C213.357 32.696 213.423 32.738 213.471 32.81C213.519 32.87 213.543 32.942 213.543 33.026V33.8H211.257ZM211.509 25.898C211.401 25.802 211.269 25.754 211.113 25.754H210.735C209.655 25.754 208.725 26.222 207.945 27.158C207.165 28.106 206.775 29.198 206.775 30.434C206.775 31.874 207.237 32.594 208.161 32.594C208.749 32.594 209.307 32.252 209.835 31.568C210.351 30.908 210.777 30.05 211.113 28.994L211.509 25.898ZM231.644 21.686C231.632 21.866 231.53 21.974 231.338 22.01L230.42 22.226L224.264 33.8H222.698L219.404 22.226L218.504 22.01C218.336 21.974 218.264 21.866 218.288 21.686L218.378 20.912H222.662L222.572 21.686C222.56 21.854 222.428 21.968 222.176 22.028L221.204 22.226L223.49 30.416C223.562 30.656 223.646 31.124 223.742 31.82C223.982 31.148 224.174 30.68 224.318 30.416L228.584 22.208L227.576 22.01C227.408 21.974 227.336 21.86 227.36 21.668L227.45 20.912H231.734L231.644 21.686ZM234.639 21.38C234.687 21.5 234.699 21.65 234.675 21.83C234.663 21.95 234.615 22.094 234.531 22.262C234.471 22.37 234.369 22.49 234.225 22.622C234.081 22.742 233.949 22.826 233.829 22.874C233.673 22.934 233.523 22.964 233.379 22.964C233.247 22.964 233.109 22.934 232.965 22.874C232.833 22.814 232.719 22.73 232.623 22.622C232.527 22.502 232.461 22.382 232.425 22.262C232.401 22.142 232.389 22.04 232.389 21.956C232.389 21.764 232.437 21.572 232.533 21.38C232.605 21.224 232.701 21.098 232.821 21.002C232.941 20.906 233.073 20.828 233.217 20.768C233.373 20.708 233.523 20.678 233.667 20.678C233.811 20.678 233.955 20.708 234.099 20.768C234.231 20.828 234.339 20.906 234.423 21.002C234.507 21.11 234.579 21.236 234.639 21.38ZM234.009 32.684C234.093 32.696 234.153 32.738 234.189 32.81C234.237 32.87 234.255 32.942 234.243 33.026L234.153 33.8H231.237L231.399 32.486L232.209 25.988L231.201 25.79C231.117 25.778 231.051 25.742 231.003 25.682C230.967 25.622 230.955 25.55 230.967 25.466L231.057 24.692H233.973L233.001 32.486L234.009 32.684ZM237.736 24.692C237.904 24.692 238.018 24.722 238.078 24.782C238.138 24.842 238.168 24.956 238.168 25.124L238.114 26.546C238.942 25.202 239.95 24.53 241.138 24.53C241.618 24.53 242.02 24.632 242.344 24.836L241.984 26.042C241.924 26.198 241.84 26.276 241.732 26.276C241.624 26.276 241.48 26.246 241.3 26.186C241.12 26.126 240.88 26.096 240.58 26.096C239.536 26.096 238.678 26.732 238.006 28.004L237.304 33.8H235.702L236.656 26.006C236.344 25.946 236.11 25.898 235.954 25.862C235.81 25.826 235.708 25.802 235.648 25.79C235.48 25.754 235.408 25.646 235.432 25.466L235.522 24.692H237.736ZM245.737 33.944C245.029 33.944 244.501 33.74 244.153 33.332C243.877 33.02 243.739 32.594 243.739 32.054C243.739 31.97 243.751 31.82 243.775 31.604L244.459 26.024H243.361C243.265 26.024 243.187 25.994 243.127 25.934C243.079 25.874 243.061 25.784 243.073 25.664L243.145 25.034L244.657 24.836L245.377 22.028C245.389 21.944 245.437 21.872 245.521 21.812C245.605 21.752 245.695 21.722 245.791 21.722H246.601L246.205 24.872H248.815L248.671 26.024H246.061L245.395 31.496C245.383 31.556 245.377 31.634 245.377 31.73C245.377 31.994 245.443 32.204 245.575 32.36C245.743 32.54 245.971 32.63 246.259 32.63C246.379 32.63 246.523 32.606 246.691 32.558C246.823 32.522 246.937 32.474 247.033 32.414L247.285 32.27C247.381 32.222 247.441 32.198 247.465 32.198C247.549 32.198 247.615 32.252 247.663 32.36L248.041 33.116C247.705 33.392 247.345 33.596 246.961 33.728C246.553 33.872 246.145 33.944 245.737 33.944ZM253.872 32.666C254.784 32.666 255.66 32.246 256.5 31.406L257.166 25.988L256.158 25.79C255.978 25.754 255.9 25.64 255.924 25.448L256.014 24.692H258.912L257.958 32.486L258.966 32.684C259.146 32.72 259.224 32.834 259.2 33.026L259.11 33.8H256.842C256.626 33.8 256.5 33.692 256.464 33.476L256.446 32.486C255.462 33.458 254.394 33.944 253.242 33.944C252.27 33.944 251.55 33.632 251.082 33.008C250.746 32.564 250.578 31.958 250.578 31.19C250.578 30.89 250.59 30.656 250.614 30.488L251.172 25.988L250.164 25.79C249.996 25.754 249.924 25.64 249.948 25.448L250.038 24.692H252.936L252.216 30.488C252.192 30.704 252.18 30.854 252.18 30.938C252.18 31.43 252.288 31.82 252.504 32.108C252.768 32.48 253.224 32.666 253.872 32.666ZM266.241 33.8C265.881 33.8 265.701 33.614 265.701 33.242L265.863 31.424C265.203 32.6 264.417 33.374 263.505 33.746C263.217 33.866 262.899 33.926 262.551 33.926C261.747 33.926 261.147 33.632 260.751 33.044C260.367 32.444 260.175 31.67 260.175 30.722C260.175 29.066 260.727 27.632 261.831 26.42C262.959 25.184 264.327 24.566 265.935 24.566C266.799 24.566 267.543 24.704 268.167 24.98L267.231 32.486L268.257 32.684C268.341 32.696 268.407 32.738 268.455 32.81C268.503 32.87 268.527 32.942 268.527 33.026V33.8H266.241ZM266.493 25.898C266.385 25.802 266.253 25.754 266.097 25.754H265.719C264.639 25.754 263.709 26.222 262.929 27.158C262.149 28.106 261.759 29.198 261.759 30.434C261.759 31.874 262.221 32.594 263.145 32.594C263.733 32.594 264.291 32.252 264.819 31.568C265.335 30.908 265.761 30.05 266.097 28.994L266.493 25.898ZM272.75 32.702C272.93 32.738 273.008 32.846 272.984 33.026L272.894 33.8H269.978L271.454 21.866C271.142 21.806 270.908 21.758 270.752 21.722C270.608 21.686 270.506 21.662 270.446 21.65C270.278 21.614 270.206 21.5 270.23 21.308L270.32 20.552H273.218L271.742 32.486C272.066 32.546 272.3 32.594 272.444 32.63C272.6 32.666 272.702 32.69 272.75 32.702ZM84.326 48.978C85.418 49.506 85.964 50.322 85.964 51.426C85.964 51.51 85.952 51.66 85.928 51.876C85.784 53.064 85.292 54.024 84.452 54.756C83.552 55.548 82.436 55.944 81.104 55.944C80.624 55.944 80.042 55.884 79.358 55.764C78.782 55.668 78.314 55.56 77.954 55.44L77.45 55.26L77.864 52.02H78.728C78.92 52.02 79.028 52.122 79.052 52.326L79.034 53.208L78.998 54C79.874 54.336 80.582 54.504 81.122 54.504C81.638 54.504 82.088 54.444 82.472 54.324C82.808 54.216 83.102 54.054 83.354 53.838C83.858 53.418 84.158 52.848 84.254 52.128C84.266 52.068 84.272 51.978 84.272 51.858C84.272 51.306 84.014 50.868 83.498 50.544C83.222 50.376 82.91 50.232 82.562 50.112C81.434 49.74 80.708 49.482 80.384 49.338C80.06 49.194 79.76 48.984 79.484 48.708C79.016 48.24 78.782 47.616 78.782 46.836C78.782 46.716 78.794 46.536 78.818 46.296C78.95 45.336 79.394 44.52 80.15 43.848C80.978 43.128 81.98 42.768 83.156 42.768C84.356 42.768 85.532 43.008 86.684 43.488L86.306 46.458H85.442C85.25 46.458 85.142 46.356 85.118 46.152C85.118 45.768 85.13 45.234 85.154 44.55C84.398 44.322 83.708 44.208 83.084 44.208C82.316 44.208 81.698 44.4 81.23 44.784C80.69 45.204 80.42 45.75 80.42 46.422C80.42 46.95 80.69 47.382 81.23 47.718C81.554 47.91 81.866 48.06 82.166 48.168C83.21 48.528 83.93 48.798 84.326 48.978ZM93.8957 54.108C93.3317 54.696 92.7617 55.146 92.1857 55.458C91.6097 55.77 90.9017 55.926 90.0617 55.926C89.2457 55.926 88.5797 55.734 88.0637 55.35C87.5477 54.966 87.1757 54.438 86.9477 53.766C86.7917 53.334 86.7137 52.824 86.7137 52.236C86.7137 50.76 87.1397 49.458 87.9917 48.33C88.8797 47.154 90.0317 46.566 91.4477 46.566C92.0597 46.566 92.5817 46.686 93.0137 46.926C93.4577 47.166 93.7697 47.502 93.9497 47.934C94.0577 48.186 94.1117 48.42 94.1117 48.636C94.1117 49.116 94.0157 49.512 93.8237 49.824C93.6437 50.136 93.3617 50.406 92.9777 50.634C92.5457 50.898 91.9517 51.132 91.1957 51.336C90.5117 51.516 89.5397 51.672 88.2797 51.804V52.2C88.2797 53.844 88.9817 54.666 90.3857 54.666C91.0937 54.666 91.7057 54.468 92.2217 54.072C92.5817 53.796 92.8097 53.628 92.9057 53.568C93.0017 53.508 93.0977 53.478 93.1937 53.478C93.3137 53.478 93.4157 53.526 93.4997 53.622L93.8957 54.108ZM92.6717 48.708C92.6717 48.396 92.5457 48.156 92.2937 47.988C92.0417 47.808 91.7297 47.718 91.3577 47.718C90.7577 47.718 90.2477 47.892 89.8277 48.24C89.4197 48.576 89.0897 49.014 88.8377 49.554C88.6457 49.938 88.5077 50.334 88.4237 50.742C89.2757 50.646 90.0197 50.514 90.6557 50.346C91.1717 50.214 91.5977 50.058 91.9337 49.878C92.1857 49.734 92.3717 49.578 92.4917 49.41C92.6117 49.23 92.6717 48.996 92.6717 48.708ZM101.987 49.23C101.987 49.53 101.951 49.8 101.879 50.04C101.783 50.352 101.699 50.574 101.627 50.706C101.483 50.97 101.369 51.162 101.285 51.282C101.201 51.402 101.135 51.51 101.087 51.606C101.039 51.69 100.997 51.762 100.961 51.822C100.901 51.918 100.817 52.104 100.709 52.38C100.637 52.56 100.601 52.764 100.601 52.992C100.601 53.256 100.661 53.484 100.781 53.676L101.195 54.306C101.291 54.45 101.423 54.69 101.591 55.026C101.711 55.266 101.771 55.566 101.771 55.926C101.771 56.358 101.675 56.76 101.483 57.132C101.279 57.516 100.997 57.852 100.637 58.14C100.241 58.452 99.7975 58.686 99.3055 58.842C98.7655 59.01 98.1715 59.094 97.5235 59.094C97.0075 59.094 96.5335 59.04 96.1015 58.932C95.6695 58.824 95.3035 58.674 95.0035 58.482C94.6915 58.278 94.4575 58.038 94.3015 57.762C94.1335 57.486 94.0495 57.18 94.0495 56.844C94.0495 56.376 94.1755 55.968 94.4275 55.62C94.6915 55.272 95.0155 54.99 95.3995 54.774C95.7955 54.558 96.2515 54.396 96.7675 54.288C97.2955 54.18 97.8175 54.126 98.3335 54.126C98.4775 54.126 98.6935 54.138 98.9815 54.162C99.2455 54.186 99.4555 54.21 99.6115 54.234C99.5755 54.162 99.5335 54.042 99.4855 53.874C99.4495 53.742 99.4315 53.61 99.4315 53.478C99.4315 53.31 99.4615 53.118 99.5215 52.902C99.5575 52.77 99.6535 52.548 99.8095 52.236C99.6055 52.38 99.3475 52.5 99.0355 52.596C98.7715 52.68 98.4535 52.722 98.0815 52.722C97.7695 52.722 97.4455 52.662 97.1095 52.542C96.8455 52.446 96.5815 52.278 96.3175 52.038C96.0775 51.822 95.8975 51.546 95.7775 51.21C95.6455 50.85 95.5795 50.46 95.5795 50.04C95.5795 49.596 95.6575 49.176 95.8135 48.78C95.9935 48.336 96.2215 47.964 96.4975 47.664C96.8095 47.328 97.1875 47.064 97.6315 46.872C98.0995 46.668 98.6215 46.566 99.1975 46.566C99.8455 46.566 100.415 46.722 100.907 47.034H103.391L103.319 47.574C103.307 47.658 103.271 47.748 103.211 47.844C103.163 47.928 103.079 47.982 102.959 48.006L101.825 48.204C101.873 48.348 101.915 48.51 101.951 48.69C101.975 48.798 101.987 48.978 101.987 49.23ZM98.5135 51.714C98.8375 51.714 99.1255 51.642 99.3775 51.498C99.6415 51.342 99.8515 51.156 100.007 50.94C100.175 50.7 100.301 50.442 100.385 50.166C100.481 49.854 100.529 49.566 100.529 49.302C100.529 48.762 100.397 48.36 100.133 48.096C99.8695 47.832 99.4975 47.7 99.0175 47.7C98.7175 47.7 98.4355 47.766 98.1715 47.898C97.9195 48.03 97.7095 48.204 97.5415 48.42C97.3855 48.636 97.2595 48.888 97.1635 49.176C97.0795 49.44 97.0375 49.734 97.0375 50.058C97.0375 50.586 97.1695 51 97.4335 51.3C97.6975 51.576 98.0575 51.714 98.5135 51.714ZM100.313 56.052C100.313 55.86 100.301 55.716 100.277 55.62C100.217 55.416 100.175 55.284 100.151 55.224C99.8155 55.164 99.5155 55.128 99.2515 55.116C98.8675 55.092 98.5975 55.08 98.4415 55.08C97.9255 55.08 97.4995 55.122 97.1635 55.206C96.7795 55.302 96.4795 55.416 96.2635 55.548C96.0115 55.704 95.8375 55.872 95.7415 56.052C95.6335 56.232 95.5795 56.43 95.5795 56.646C95.5795 57.078 95.7595 57.408 96.1195 57.636C96.4675 57.864 96.9835 57.978 97.6675 57.978C98.0635 57.978 98.4235 57.924 98.7475 57.816C99.1075 57.696 99.3895 57.558 99.5935 57.402C99.8335 57.222 100.013 57.018 100.133 56.79C100.253 56.562 100.313 56.316 100.313 56.052ZM108.395 54.666C109.307 54.666 110.183 54.246 111.023 53.406L111.689 47.988L110.681 47.79C110.501 47.754 110.423 47.64 110.447 47.448L110.537 46.692H113.435L112.481 54.486L113.489 54.684C113.669 54.72 113.747 54.834 113.723 55.026L113.633 55.8H111.365C111.149 55.8 111.023 55.692 110.987 55.476L110.969 54.486C109.985 55.458 108.917 55.944 107.765 55.944C106.793 55.944 106.073 55.632 105.605 55.008C105.269 54.564 105.101 53.958 105.101 53.19C105.101 52.89 105.113 52.656 105.137 52.488L105.695 47.988L104.687 47.79C104.519 47.754 104.447 47.64 104.471 47.448L104.561 46.692H107.459L106.739 52.488C106.715 52.704 106.703 52.854 106.703 52.938C106.703 53.43 106.811 53.82 107.027 54.108C107.291 54.48 107.747 54.666 108.395 54.666ZM123.987 54.702C124.167 54.738 124.245 54.846 124.221 55.026L124.131 55.8H121.215L121.935 50.004C121.959 49.764 121.971 49.596 121.971 49.5C121.971 48.372 121.407 47.808 120.279 47.808C119.415 47.808 118.545 48.234 117.669 49.086L116.841 55.8H115.239L116.193 47.988L115.185 47.79C115.017 47.754 114.945 47.64 114.969 47.448L115.059 46.674H117.309C117.537 46.674 117.669 46.788 117.705 47.016V48.006C118.725 47.022 119.793 46.53 120.909 46.53C121.773 46.53 122.433 46.776 122.889 47.268C123.345 47.76 123.573 48.444 123.573 49.32C123.573 49.608 123.561 49.83 123.537 49.986L122.979 54.486C123.303 54.546 123.537 54.594 123.681 54.63C123.837 54.666 123.939 54.69 123.987 54.702ZM129.641 46.512C130.661 46.512 131.447 46.872 131.999 47.592L132.467 43.848L131.279 43.65C131.099 43.614 131.021 43.5 131.045 43.308L131.153 42.534H134.231L132.755 54.486L133.763 54.684C133.931 54.72 134.003 54.834 133.979 55.026L133.889 55.8H131.639C131.411 55.8 131.279 55.692 131.243 55.476V54.36C130.259 55.404 129.173 55.926 127.985 55.926C126.917 55.926 126.131 55.53 125.627 54.738C125.231 54.126 125.033 53.322 125.033 52.326C125.033 51.954 125.057 51.6 125.105 51.264C125.261 49.908 125.753 48.78 126.581 47.88C127.409 46.968 128.429 46.512 129.641 46.512ZM128.687 54.63C129.611 54.63 130.481 54.168 131.297 53.244L131.855 48.852C131.423 48.132 130.763 47.772 129.875 47.772C128.987 47.772 128.285 48.072 127.769 48.672C127.241 49.296 126.905 50.16 126.761 51.264C126.713 51.72 126.689 52.038 126.689 52.218C126.689 53.37 127.031 54.108 127.715 54.432C128.003 54.564 128.327 54.63 128.687 54.63ZM140.962 55.8C140.602 55.8 140.422 55.614 140.422 55.242L140.584 53.424C139.924 54.6 139.138 55.374 138.226 55.746C137.938 55.866 137.62 55.926 137.272 55.926C136.468 55.926 135.868 55.632 135.472 55.044C135.088 54.444 134.896 53.67 134.896 52.722C134.896 51.066 135.448 49.632 136.552 48.42C137.68 47.184 139.048 46.566 140.656 46.566C141.52 46.566 142.264 46.704 142.888 46.98L141.952 54.486L142.978 54.684C143.062 54.696 143.128 54.738 143.176 54.81C143.224 54.87 143.248 54.942 143.248 55.026V55.8H140.962ZM141.214 47.898C141.106 47.802 140.974 47.754 140.818 47.754H140.44C139.36 47.754 138.43 48.222 137.65 49.158C136.87 50.106 136.48 51.198 136.48 52.434C136.48 53.874 136.942 54.594 137.866 54.594C138.454 54.594 139.012 54.252 139.54 53.568C140.056 52.908 140.482 52.05 140.818 50.994L141.214 47.898ZM154.005 55.8C153.645 55.8 153.465 55.614 153.465 55.242L153.627 53.424C152.967 54.6 152.181 55.374 151.269 55.746C150.981 55.866 150.663 55.926 150.315 55.926C149.511 55.926 148.911 55.632 148.515 55.044C148.131 54.444 147.939 53.67 147.939 52.722C147.939 51.066 148.491 49.632 149.595 48.42C150.723 47.184 152.091 46.566 153.699 46.566C154.563 46.566 155.307 46.704 155.931 46.98L154.995 54.486L156.021 54.684C156.105 54.696 156.171 54.738 156.219 54.81C156.267 54.87 156.291 54.942 156.291 55.026V55.8H154.005ZM154.257 47.898C154.149 47.802 154.017 47.754 153.861 47.754H153.483C152.403 47.754 151.473 48.222 150.693 49.158C149.913 50.106 149.523 51.198 149.523 52.434C149.523 53.874 149.985 54.594 150.909 54.594C151.497 54.594 152.055 54.252 152.583 53.568C153.099 52.908 153.525 52.05 153.861 50.994L154.257 47.898ZM165.536 46.548C166.196 46.548 166.97 46.704 167.858 47.016L167.786 47.646L167.57 49.356H166.868C166.7 49.356 166.604 49.272 166.58 49.104C166.58 48.816 166.592 48.42 166.616 47.916C166.124 47.796 165.668 47.736 165.248 47.736H165.23C164.702 47.736 164.27 47.862 163.934 48.114C163.586 48.366 163.394 48.642 163.358 48.942L163.34 49.158C163.34 49.35 163.388 49.512 163.484 49.644C163.664 49.908 163.982 50.118 164.438 50.274L165.518 50.634C165.974 50.802 166.25 50.91 166.346 50.958C166.634 51.09 166.868 51.24 167.048 51.408C167.42 51.732 167.606 52.158 167.606 52.686C167.606 52.83 167.6 52.938 167.588 53.01C167.48 53.886 167.096 54.582 166.436 55.098C165.764 55.65 164.93 55.926 163.934 55.926C162.902 55.926 161.942 55.764 161.054 55.44L161.342 53.064H161.972C162.128 53.064 162.212 53.136 162.224 53.28C162.224 53.568 162.212 53.952 162.188 54.432C162.692 54.672 163.292 54.792 163.988 54.792C164.588 54.792 165.074 54.642 165.446 54.342C165.794 54.066 165.986 53.76 166.022 53.424C166.034 53.364 166.04 53.286 166.04 53.19C166.04 52.962 165.998 52.788 165.914 52.668C165.794 52.476 165.632 52.332 165.428 52.236C165.164 52.104 164.924 52.002 164.708 51.93C163.844 51.642 163.31 51.45 163.106 51.354C162.77 51.198 162.512 51.036 162.332 50.868C161.972 50.544 161.792 50.1 161.792 49.536C161.792 48.612 162.152 47.88 162.872 47.34C163.52 46.812 164.408 46.548 165.536 46.548ZM175.599 54.108C175.035 54.696 174.465 55.146 173.889 55.458C173.313 55.77 172.605 55.926 171.765 55.926C170.949 55.926 170.283 55.734 169.767 55.35C169.251 54.966 168.879 54.438 168.651 53.766C168.495 53.334 168.417 52.824 168.417 52.236C168.417 50.76 168.843 49.458 169.695 48.33C170.583 47.154 171.735 46.566 173.151 46.566C173.763 46.566 174.285 46.686 174.717 46.926C175.161 47.166 175.473 47.502 175.653 47.934C175.761 48.186 175.815 48.42 175.815 48.636C175.815 49.116 175.719 49.512 175.527 49.824C175.347 50.136 175.065 50.406 174.681 50.634C174.249 50.898 173.655 51.132 172.899 51.336C172.215 51.516 171.243 51.672 169.983 51.804V52.2C169.983 53.844 170.685 54.666 172.089 54.666C172.797 54.666 173.409 54.468 173.925 54.072C174.285 53.796 174.513 53.628 174.609 53.568C174.705 53.508 174.801 53.478 174.897 53.478C175.017 53.478 175.119 53.526 175.203 53.622L175.599 54.108ZM174.375 48.708C174.375 48.396 174.249 48.156 173.997 47.988C173.745 47.808 173.433 47.718 173.061 47.718C172.461 47.718 171.951 47.892 171.531 48.24C171.123 48.576 170.793 49.014 170.541 49.554C170.349 49.938 170.211 50.334 170.127 50.742C170.979 50.646 171.723 50.514 172.359 50.346C172.875 50.214 173.301 50.058 173.637 49.878C173.889 49.734 174.075 49.578 174.195 49.41C174.315 49.23 174.375 48.996 174.375 48.708ZM184.141 54.522C184.429 54.594 184.693 54.648 184.933 54.684C185.137 54.72 185.227 54.834 185.203 55.026L185.113 55.8H181.531L181.621 55.026C181.645 54.834 181.753 54.72 181.945 54.684C181.981 54.672 182.035 54.666 182.107 54.666C182.179 54.654 182.281 54.636 182.413 54.612L180.991 51.894C180.919 52.086 180.835 52.242 180.739 52.362L178.957 54.576L179.155 54.63L179.479 54.684C179.659 54.72 179.737 54.834 179.713 55.026L179.605 55.8H176.041L176.131 55.026C176.155 54.834 176.257 54.72 176.437 54.684L176.887 54.612L177.337 54.522L180.055 51.12L178.273 47.988L177.373 47.79C177.193 47.754 177.115 47.64 177.139 47.448L177.229 46.692H180.811L180.703 47.448C180.679 47.64 180.577 47.754 180.397 47.79L180.001 47.88L181.315 50.346C181.411 50.142 181.507 49.974 181.603 49.842L183.169 47.88L182.899 47.826L182.719 47.79C182.539 47.754 182.461 47.64 182.485 47.448L182.575 46.692H186.157L186.049 47.448C186.025 47.64 185.917 47.754 185.725 47.79L184.771 47.988L182.233 51.048L184.141 54.522ZM189.821 55.944C189.113 55.944 188.585 55.74 188.237 55.332C187.961 55.02 187.823 54.594 187.823 54.054C187.823 53.97 187.835 53.82 187.859 53.604L188.543 48.024H187.445C187.349 48.024 187.271 47.994 187.211 47.934C187.163 47.874 187.145 47.784 187.157 47.664L187.229 47.034L188.741 46.836L189.461 44.028C189.473 43.944 189.521 43.872 189.605 43.812C189.689 43.752 189.779 43.722 189.875 43.722H190.685L190.289 46.872H192.899L192.755 48.024H190.145L189.479 53.496C189.467 53.556 189.461 53.634 189.461 53.73C189.461 53.994 189.527 54.204 189.659 54.36C189.827 54.54 190.055 54.63 190.343 54.63C190.463 54.63 190.607 54.606 190.775 54.558C190.907 54.522 191.021 54.474 191.117 54.414L191.369 54.27C191.465 54.222 191.525 54.198 191.549 54.198C191.633 54.198 191.699 54.252 191.747 54.36L192.125 55.116C191.789 55.392 191.429 55.596 191.045 55.728C190.637 55.872 190.229 55.944 189.821 55.944ZM198.988 55.8C198.628 55.8 198.448 55.614 198.448 55.242L198.61 53.424C197.95 54.6 197.164 55.374 196.252 55.746C195.964 55.866 195.646 55.926 195.298 55.926C194.494 55.926 193.894 55.632 193.498 55.044C193.114 54.444 192.922 53.67 192.922 52.722C192.922 51.066 193.474 49.632 194.578 48.42C195.706 47.184 197.074 46.566 198.682 46.566C199.546 46.566 200.29 46.704 200.914 46.98L199.978 54.486L201.004 54.684C201.088 54.696 201.154 54.738 201.202 54.81C201.25 54.87 201.274 54.942 201.274 55.026V55.8H198.988ZM199.24 47.898C199.132 47.802 199 47.754 198.844 47.754H198.466C197.386 47.754 196.456 48.222 195.676 49.158C194.896 50.106 194.506 51.198 194.506 52.434C194.506 53.874 194.968 54.594 195.892 54.594C196.48 54.594 197.038 54.252 197.566 53.568C198.082 52.908 198.508 52.05 198.844 50.994L199.24 47.898ZM209.996 55.944C209.324 55.944 208.742 55.86 208.25 55.692C207.722 55.5 207.296 55.254 206.972 54.954C206.624 54.63 206.372 54.246 206.216 53.802C206.108 53.49 206.054 53.154 206.054 52.794C206.054 51.738 206.366 50.88 206.99 50.22C207.47 49.704 208.136 49.326 208.988 49.086C208.352 48.834 207.89 48.456 207.602 47.952C207.374 47.532 207.26 47.088 207.26 46.62C207.26 46.524 207.272 46.368 207.296 46.152C207.344 45.708 207.494 45.264 207.746 44.82C207.974 44.412 208.28 44.052 208.664 43.74C209.036 43.44 209.474 43.2 209.978 43.02C210.446 42.852 210.992 42.768 211.616 42.768C212.228 42.768 212.744 42.852 213.164 43.02C213.644 43.212 214.028 43.452 214.316 43.74C214.616 44.04 214.838 44.4 214.982 44.82C215.078 45.108 215.126 45.396 215.126 45.684C215.126 46.572 214.868 47.328 214.352 47.952C213.956 48.444 213.398 48.816 212.678 49.068C213.47 49.308 214.04 49.692 214.388 50.22C214.676 50.628 214.82 51.138 214.82 51.75C214.82 51.858 214.808 52.032 214.784 52.272C214.712 52.86 214.544 53.37 214.28 53.802C214.016 54.246 213.674 54.63 213.254 54.954C212.87 55.254 212.378 55.5 211.778 55.692C211.262 55.86 210.668 55.944 209.996 55.944ZM210.914 48.474C211.322 48.474 211.688 48.408 212.012 48.276C212.336 48.144 212.6 47.976 212.804 47.772C212.984 47.592 213.146 47.346 213.29 47.034C213.41 46.782 213.488 46.5 213.524 46.188C213.536 46.116 213.542 46.02 213.542 45.9C213.542 45.684 213.518 45.498 213.47 45.342C213.398 45.066 213.284 44.832 213.128 44.64C212.972 44.448 212.744 44.292 212.444 44.172C212.18 44.064 211.85 44.01 211.454 44.01C211.082 44.01 210.74 44.064 210.428 44.172C210.128 44.28 209.864 44.436 209.636 44.64C209.408 44.844 209.234 45.078 209.114 45.342C208.982 45.63 208.898 45.912 208.862 46.188C208.85 46.272 208.844 46.398 208.844 46.566C208.844 46.782 208.856 46.938 208.88 47.034C208.94 47.31 209.048 47.556 209.204 47.772C209.372 47.988 209.588 48.156 209.852 48.276C210.152 48.408 210.506 48.474 210.914 48.474ZM210.14 54.666C210.524 54.666 210.908 54.606 211.292 54.486C211.664 54.366 211.97 54.204 212.21 54C212.438 53.808 212.642 53.55 212.822 53.226C212.99 52.926 213.092 52.602 213.128 52.254C213.152 52.038 213.164 51.888 213.164 51.804C213.164 51.552 213.128 51.318 213.056 51.102C212.96 50.814 212.792 50.562 212.552 50.346C212.324 50.142 212.054 49.992 211.742 49.896C211.454 49.812 211.124 49.77 210.752 49.77C210.38 49.77 210.032 49.812 209.708 49.896C209.408 49.98 209.108 50.13 208.808 50.346C208.496 50.574 208.262 50.826 208.106 51.102C207.854 51.558 207.728 52.05 207.728 52.578C207.728 52.794 207.758 53.01 207.818 53.226C207.914 53.538 208.058 53.796 208.25 54C208.442 54.216 208.706 54.378 209.042 54.486C209.402 54.606 209.768 54.666 210.14 54.666ZM225.257 54.702C225.437 54.738 225.515 54.846 225.491 55.026L225.401 55.8H222.503L223.205 50.004C223.229 49.764 223.241 49.596 223.241 49.5C223.241 48.384 222.677 47.826 221.549 47.826C220.661 47.826 219.791 48.246 218.939 49.086L218.489 52.65L218.111 55.8H216.509L216.725 54.036L217.967 43.866C217.631 43.818 217.361 43.776 217.157 43.74C216.953 43.692 216.833 43.662 216.797 43.65C216.617 43.614 216.539 43.5 216.563 43.308L216.653 42.552H219.731L219.083 47.916C220.043 47.004 221.075 46.548 222.179 46.548C223.175 46.548 223.895 46.86 224.339 47.484C224.675 47.94 224.843 48.546 224.843 49.302C224.843 49.602 224.831 49.836 224.807 50.004L224.249 54.486C224.561 54.546 224.789 54.594 224.933 54.63C225.089 54.666 225.197 54.69 225.257 54.702ZM234.132 42.768C234.348 42.768 234.492 42.798 234.564 42.858C234.66 42.93 234.738 43.032 234.798 43.164L235.878 45.324H234.96C234.828 45.324 234.726 45.306 234.654 45.27C234.594 45.234 234.522 45.168 234.438 45.072L232.62 42.768H234.132ZM236.076 55.782C235.716 55.782 235.536 55.596 235.536 55.224L235.698 53.406C235.026 54.606 234.234 55.38 233.322 55.728C233.034 55.848 232.716 55.908 232.368 55.908C231.564 55.908 230.964 55.614 230.568 55.026C230.184 54.426 229.992 53.652 229.992 52.704C229.992 51.06 230.55 49.626 231.666 48.402C232.794 47.166 234.156 46.548 235.752 46.548C236.616 46.548 237.36 46.686 237.984 46.962L237.066 54.468L238.092 54.666C238.176 54.678 238.242 54.72 238.29 54.792C238.338 54.852 238.362 54.924 238.362 55.008V55.782H236.076ZM236.31 47.88C236.202 47.784 236.076 47.736 235.932 47.736H235.536C234.468 47.736 233.544 48.204 232.764 49.14C231.984 50.088 231.594 51.18 231.594 52.416C231.594 53.856 232.056 54.576 232.98 54.576C233.556 54.576 234.108 54.234 234.636 53.55C235.176 52.866 235.608 52.008 235.932 50.976L236.31 47.88ZM243.811 46.548C244.471 46.548 245.245 46.704 246.133 47.016L246.061 47.646L245.845 49.356H245.143C244.975 49.356 244.879 49.272 244.855 49.104C244.855 48.816 244.867 48.42 244.891 47.916C244.399 47.796 243.943 47.736 243.523 47.736H243.505C242.977 47.736 242.545 47.862 242.209 48.114C241.861 48.366 241.669 48.642 241.633 48.942L241.615 49.158C241.615 49.35 241.663 49.512 241.759 49.644C241.939 49.908 242.257 50.118 242.713 50.274L243.793 50.634C244.249 50.802 244.525 50.91 244.621 50.958C244.909 51.09 245.143 51.24 245.323 51.408C245.695 51.732 245.881 52.158 245.881 52.686C245.881 52.83 245.875 52.938 245.863 53.01C245.755 53.886 245.371 54.582 244.711 55.098C244.039 55.65 243.205 55.926 242.209 55.926C241.177 55.926 240.217 55.764 239.329 55.44L239.617 53.064H240.247C240.403 53.064 240.487 53.136 240.499 53.28C240.499 53.568 240.487 53.952 240.463 54.432C240.967 54.672 241.567 54.792 242.263 54.792C242.863 54.792 243.349 54.642 243.721 54.342C244.069 54.066 244.261 53.76 244.297 53.424C244.309 53.364 244.315 53.286 244.315 53.19C244.315 52.962 244.273 52.788 244.189 52.668C244.069 52.476 243.907 52.332 243.703 52.236C243.439 52.104 243.199 52.002 242.983 51.93C242.119 51.642 241.585 51.45 241.381 51.354C241.045 51.198 240.787 51.036 240.607 50.868C240.247 50.544 240.067 50.1 240.067 49.536C240.067 48.612 240.427 47.88 241.147 47.34C241.795 46.812 242.683 46.548 243.811 46.548ZM257.132 54.756C257.3 54.792 257.372 54.9 257.348 55.08L257.258 55.8H250.346L250.418 55.26L250.436 55.08C250.46 54.9 250.556 54.792 250.724 54.756L253.262 54.576L254.342 45.792C254.39 45.432 254.432 45.162 254.468 44.982L251.93 46.944C251.798 47.04 251.684 47.088 251.588 47.088C251.384 47.088 251.246 47.022 251.174 46.89L250.76 46.188L255.008 42.876H256.304L254.864 54.576C255.068 54.6 255.392 54.624 255.836 54.648C256.628 54.696 257.06 54.732 257.132 54.756ZM264.673 54.756C264.841 54.792 264.913 54.9 264.889 55.08L264.799 55.8H257.887L257.959 55.26L257.977 55.08C258.001 54.9 258.097 54.792 258.265 54.756L260.803 54.576L261.883 45.792C261.931 45.432 261.973 45.162 262.009 44.982L259.471 46.944C259.339 47.04 259.225 47.088 259.129 47.088C258.925 47.088 258.787 47.022 258.715 46.89L258.301 46.188L262.549 42.876H263.845L262.405 54.576C262.609 54.6 262.933 54.624 263.377 54.648C264.169 54.696 264.601 54.732 264.673 54.756ZM274.95 54.702C275.13 54.738 275.208 54.846 275.184 55.026L275.094 55.8H272.196L272.898 50.004C272.922 49.764 272.934 49.596 272.934 49.5C272.934 48.384 272.37 47.826 271.242 47.826C270.354 47.826 269.484 48.246 268.632 49.086L268.182 52.65L267.804 55.8H266.202L266.418 54.036L267.66 43.866C267.324 43.818 267.054 43.776 266.85 43.74C266.646 43.692 266.526 43.662 266.49 43.65C266.31 43.614 266.232 43.5 266.256 43.308L266.346 42.552H269.424L268.776 47.916C269.736 47.004 270.768 46.548 271.872 46.548C272.868 46.548 273.588 46.86 274.032 47.484C274.368 47.94 274.536 48.546 274.536 49.302C274.536 49.602 274.524 49.836 274.5 50.004L273.942 54.486C274.254 54.546 274.482 54.594 274.626 54.63C274.782 54.666 274.89 54.69 274.95 54.702ZM123.102 76.108C122.538 76.696 121.968 77.146 121.392 77.458C120.816 77.77 120.108 77.926 119.268 77.926C118.452 77.926 117.786 77.734 117.27 77.35C116.754 76.966 116.382 76.438 116.154 75.766C115.998 75.334 115.92 74.824 115.92 74.236C115.92 72.76 116.346 71.458 117.198 70.33C118.086 69.154 119.238 68.566 120.654 68.566C121.266 68.566 121.788 68.686 122.22 68.926C122.664 69.166 122.976 69.502 123.156 69.934C123.264 70.186 123.318 70.42 123.318 70.636C123.318 71.116 123.222 71.512 123.03 71.824C122.85 72.136 122.568 72.406 122.184 72.634C121.752 72.898 121.158 73.132 120.402 73.336C119.718 73.516 118.746 73.672 117.486 73.804V74.2C117.486 75.844 118.188 76.666 119.592 76.666C120.3 76.666 120.912 76.468 121.428 76.072C121.788 75.796 122.016 75.628 122.112 75.568C122.208 75.508 122.304 75.478 122.4 75.478C122.52 75.478 122.622 75.526 122.706 75.622L123.102 76.108ZM121.878 70.708C121.878 70.396 121.752 70.156 121.5 69.988C121.248 69.808 120.936 69.718 120.564 69.718C119.964 69.718 119.454 69.892 119.034 70.24C118.626 70.576 118.296 71.014 118.044 71.554C117.852 71.938 117.714 72.334 117.63 72.742C118.482 72.646 119.226 72.514 119.862 72.346C120.378 72.214 120.804 72.058 121.14 71.878C121.392 71.734 121.578 71.578 121.698 71.41C121.818 71.23 121.878 70.996 121.878 70.708ZM132.076 68.512C133.096 68.512 133.882 68.872 134.434 69.592L134.902 65.848L133.714 65.65C133.534 65.614 133.456 65.5 133.48 65.308L133.588 64.534H136.666L135.19 76.486L136.198 76.684C136.366 76.72 136.438 76.834 136.414 77.026L136.324 77.8H134.074C133.846 77.8 133.714 77.692 133.678 77.476V76.36C132.694 77.404 131.608 77.926 130.42 77.926C129.352 77.926 128.566 77.53 128.062 76.738C127.666 76.126 127.468 75.322 127.468 74.326C127.468 73.954 127.492 73.6 127.54 73.264C127.696 71.908 128.188 70.78 129.016 69.88C129.844 68.968 130.864 68.512 132.076 68.512ZM131.122 76.63C132.046 76.63 132.916 76.168 133.732 75.244L134.29 70.852C133.858 70.132 133.198 69.772 132.31 69.772C131.422 69.772 130.72 70.072 130.204 70.672C129.676 71.296 129.34 72.16 129.196 73.264C129.148 73.72 129.124 74.038 129.124 74.218C129.124 75.37 129.466 76.108 130.15 76.432C130.438 76.564 130.762 76.63 131.122 76.63ZM143.397 77.8C143.037 77.8 142.857 77.614 142.857 77.242L143.019 75.424C142.359 76.6 141.573 77.374 140.661 77.746C140.373 77.866 140.055 77.926 139.707 77.926C138.903 77.926 138.303 77.632 137.907 77.044C137.523 76.444 137.331 75.67 137.331 74.722C137.331 73.066 137.883 71.632 138.987 70.42C140.115 69.184 141.483 68.566 143.091 68.566C143.955 68.566 144.699 68.704 145.323 68.98L144.387 76.486L145.413 76.684C145.497 76.696 145.563 76.738 145.611 76.81C145.659 76.87 145.683 76.942 145.683 77.026V77.8H143.397ZM143.649 69.898C143.541 69.802 143.409 69.754 143.253 69.754H142.875C141.795 69.754 140.865 70.222 140.085 71.158C139.305 72.106 138.915 73.198 138.915 74.434C138.915 75.874 139.377 76.594 140.301 76.594C140.889 76.594 141.447 76.252 141.975 75.568C142.491 74.908 142.917 74.05 143.253 72.994L143.649 69.898ZM151.184 68.548C151.844 68.548 152.618 68.704 153.506 69.016L153.434 69.646L153.218 71.356H152.516C152.348 71.356 152.252 71.272 152.228 71.104C152.228 70.816 152.24 70.42 152.264 69.916C151.772 69.796 151.316 69.736 150.896 69.736H150.878C150.35 69.736 149.918 69.862 149.582 70.114C149.234 70.366 149.042 70.642 149.006 70.942L148.988 71.158C148.988 71.35 149.036 71.512 149.132 71.644C149.312 71.908 149.63 72.118 150.086 72.274L151.166 72.634C151.622 72.802 151.898 72.91 151.994 72.958C152.282 73.09 152.516 73.24 152.696 73.408C153.068 73.732 153.254 74.158 153.254 74.686C153.254 74.83 153.248 74.938 153.236 75.01C153.128 75.886 152.744 76.582 152.084 77.098C151.412 77.65 150.578 77.926 149.582 77.926C148.55 77.926 147.59 77.764 146.702 77.44L146.99 75.064H147.62C147.776 75.064 147.86 75.136 147.872 75.28C147.872 75.568 147.86 75.952 147.836 76.432C148.34 76.672 148.94 76.792 149.636 76.792C150.236 76.792 150.722 76.642 151.094 76.342C151.442 76.066 151.634 75.76 151.67 75.424C151.682 75.364 151.688 75.286 151.688 75.19C151.688 74.962 151.646 74.788 151.562 74.668C151.442 74.476 151.28 74.332 151.076 74.236C150.812 74.104 150.572 74.002 150.356 73.93C149.492 73.642 148.958 73.45 148.754 73.354C148.418 73.198 148.16 73.036 147.98 72.868C147.62 72.544 147.44 72.1 147.44 71.536C147.44 70.612 147.8 69.88 148.52 69.34C149.168 68.812 150.056 68.548 151.184 68.548ZM164.504 76.756C164.672 76.792 164.744 76.9 164.72 77.08L164.63 77.8H157.718L157.79 77.26L157.808 77.08C157.832 76.9 157.928 76.792 158.096 76.756L160.634 76.576L161.714 67.792C161.762 67.432 161.804 67.162 161.84 66.982L159.302 68.944C159.17 69.04 159.056 69.088 158.96 69.088C158.756 69.088 158.618 69.022 158.546 68.89L158.132 68.188L162.38 64.876H163.676L162.236 76.576C162.44 76.6 162.764 76.624 163.208 76.648C164 76.696 164.432 76.732 164.504 76.756ZM170.965 64.768C171.529 64.768 172.027 64.846 172.459 65.002C172.903 65.158 173.275 65.38 173.575 65.668C173.863 65.932 174.079 66.28 174.223 66.712C174.319 67 174.367 67.288 174.367 67.576C174.367 67.684 174.355 67.846 174.331 68.062C174.271 68.482 174.175 68.848 174.043 69.16C173.923 69.436 173.737 69.718 173.485 70.006C173.293 70.234 173.035 70.438 172.711 70.618C172.411 70.786 172.081 70.924 171.721 71.032C172.537 71.248 173.125 71.62 173.485 72.148C173.773 72.556 173.917 73.054 173.917 73.642C173.917 74.386 173.725 75.076 173.341 75.712C173.029 76.216 172.675 76.618 172.279 76.918C171.847 77.242 171.361 77.494 170.821 77.674C170.281 77.854 169.711 77.944 169.111 77.944C168.391 77.944 167.815 77.86 167.383 77.692C166.915 77.512 166.537 77.278 166.249 76.99C165.949 76.69 165.715 76.33 165.547 75.91C165.379 75.49 165.253 75.046 165.169 74.578L165.871 74.29C165.979 74.242 166.111 74.218 166.267 74.218C166.387 74.218 166.489 74.242 166.573 74.29C166.657 74.338 166.717 74.416 166.753 74.524L166.789 74.596L166.807 74.686C166.831 74.758 166.909 74.956 167.041 75.28C167.125 75.472 167.263 75.676 167.455 75.892C167.635 76.096 167.869 76.258 168.157 76.378C168.457 76.51 168.823 76.576 169.255 76.576C169.711 76.576 170.119 76.504 170.479 76.36C170.827 76.216 171.133 76.024 171.397 75.784C171.649 75.556 171.847 75.292 171.991 74.992C172.135 74.704 172.225 74.422 172.261 74.146C172.273 74.038 172.279 73.888 172.279 73.696C172.279 73.468 172.267 73.3 172.243 73.192C172.195 72.916 172.057 72.664 171.829 72.436C171.637 72.244 171.325 72.082 170.893 71.95C170.497 71.83 169.951 71.77 169.255 71.77L169.399 70.6C169.903 70.6 170.377 70.54 170.821 70.42C171.217 70.312 171.553 70.156 171.829 69.952C172.105 69.748 172.315 69.514 172.459 69.25C172.603 68.974 172.693 68.668 172.729 68.332C172.753 68.14 172.765 68.008 172.765 67.936C172.765 67.732 172.735 67.54 172.675 67.36C172.579 67.072 172.447 66.844 172.279 66.676C172.111 66.508 171.883 66.376 171.595 66.28C171.307 66.184 171.013 66.136 170.713 66.136C170.413 66.136 170.107 66.184 169.795 66.28C169.555 66.352 169.297 66.484 169.021 66.676C168.793 66.856 168.589 67.06 168.409 67.288C168.241 67.504 168.097 67.762 167.977 68.062C167.905 68.254 167.821 68.38 167.725 68.44C167.617 68.512 167.491 68.548 167.347 68.548H167.131L166.321 68.404C166.489 67.792 166.711 67.27 166.987 66.838C167.275 66.394 167.629 66.016 168.049 65.704C168.481 65.392 168.931 65.158 169.399 65.002C169.879 64.846 170.401 64.768 170.965 64.768ZM184.432 76.702C184.612 76.738 184.69 76.846 184.666 77.026L184.576 77.8H181.678L182.38 72.004C182.404 71.764 182.416 71.596 182.416 71.5C182.416 70.384 181.852 69.826 180.724 69.826C179.836 69.826 178.966 70.246 178.114 71.086L177.664 74.65L177.286 77.8H175.684L175.9 76.036L177.142 65.866C176.806 65.818 176.536 65.776 176.332 65.74C176.128 65.692 176.008 65.662 175.972 65.65C175.792 65.614 175.714 65.5 175.738 65.308L175.828 64.552H178.906L178.258 69.916C179.218 69.004 180.25 68.548 181.354 68.548C182.35 68.548 183.07 68.86 183.514 69.484C183.85 69.94 184.018 70.546 184.018 71.302C184.018 71.602 184.006 71.836 183.982 72.004L183.424 76.486C183.736 76.546 183.964 76.594 184.108 76.63C184.264 76.666 184.372 76.69 184.432 76.702ZM193.307 64.768C193.523 64.768 193.667 64.798 193.739 64.858C193.835 64.93 193.913 65.032 193.973 65.164L195.053 67.324H194.135C194.003 67.324 193.901 67.306 193.829 67.27C193.769 67.234 193.697 67.168 193.613 67.072L191.795 64.768H193.307ZM195.251 77.782C194.891 77.782 194.711 77.596 194.711 77.224L194.873 75.406C194.201 76.606 193.409 77.38 192.497 77.728C192.209 77.848 191.891 77.908 191.543 77.908C190.739 77.908 190.139 77.614 189.743 77.026C189.359 76.426 189.167 75.652 189.167 74.704C189.167 73.06 189.725 71.626 190.841 70.402C191.969 69.166 193.331 68.548 194.927 68.548C195.791 68.548 196.535 68.686 197.159 68.962L196.241 76.468L197.267 76.666C197.351 76.678 197.417 76.72 197.465 76.792C197.513 76.852 197.537 76.924 197.537 77.008V77.782H195.251ZM195.485 69.88C195.377 69.784 195.251 69.736 195.107 69.736H194.711C193.643 69.736 192.719 70.204 191.939 71.14C191.159 72.088 190.769 73.18 190.769 74.416C190.769 75.856 191.231 76.576 192.155 76.576C192.731 76.576 193.283 76.234 193.811 75.55C194.351 74.866 194.783 74.008 195.107 72.976L195.485 69.88ZM202.986 68.548C203.646 68.548 204.42 68.704 205.308 69.016L205.236 69.646L205.02 71.356H204.318C204.15 71.356 204.054 71.272 204.03 71.104C204.03 70.816 204.042 70.42 204.066 69.916C203.574 69.796 203.118 69.736 202.698 69.736H202.68C202.152 69.736 201.72 69.862 201.384 70.114C201.036 70.366 200.844 70.642 200.808 70.942L200.79 71.158C200.79 71.35 200.838 71.512 200.934 71.644C201.114 71.908 201.432 72.118 201.888 72.274L202.968 72.634C203.424 72.802 203.7 72.91 203.796 72.958C204.084 73.09 204.318 73.24 204.498 73.408C204.87 73.732 205.056 74.158 205.056 74.686C205.056 74.83 205.05 74.938 205.038 75.01C204.93 75.886 204.546 76.582 203.886 77.098C203.214 77.65 202.38 77.926 201.384 77.926C200.352 77.926 199.392 77.764 198.504 77.44L198.792 75.064H199.422C199.578 75.064 199.662 75.136 199.674 75.28C199.674 75.568 199.662 75.952 199.638 76.432C200.142 76.672 200.742 76.792 201.438 76.792C202.038 76.792 202.524 76.642 202.896 76.342C203.244 76.066 203.436 75.76 203.472 75.424C203.484 75.364 203.49 75.286 203.49 75.19C203.49 74.962 203.448 74.788 203.364 74.668C203.244 74.476 203.082 74.332 202.878 74.236C202.614 74.104 202.374 74.002 202.158 73.93C201.294 73.642 200.76 73.45 200.556 73.354C200.22 73.198 199.962 73.036 199.782 72.868C199.422 72.544 199.242 72.1 199.242 71.536C199.242 70.612 199.602 69.88 200.322 69.34C200.97 68.812 201.858 68.548 202.986 68.548ZM216.307 76.756C216.475 76.792 216.547 76.9 216.523 77.08L216.433 77.8H209.521L209.593 77.26L209.611 77.08C209.635 76.9 209.731 76.792 209.899 76.756L212.437 76.576L213.517 67.792C213.565 67.432 213.607 67.162 213.643 66.982L211.105 68.944C210.973 69.04 210.859 69.088 210.763 69.088C210.559 69.088 210.421 69.022 210.349 68.89L209.935 68.188L214.183 64.876H215.479L214.039 76.576C214.243 76.6 214.567 76.624 215.011 76.648C215.803 76.696 216.235 76.732 216.307 76.756ZM221.22 77.944C220.548 77.944 219.966 77.86 219.474 77.692C218.946 77.5 218.52 77.254 218.196 76.954C217.848 76.63 217.596 76.246 217.44 75.802C217.332 75.49 217.278 75.154 217.278 74.794C217.278 73.738 217.59 72.88 218.214 72.22C218.694 71.704 219.36 71.326 220.212 71.086C219.576 70.834 219.114 70.456 218.826 69.952C218.598 69.532 218.484 69.088 218.484 68.62C218.484 68.524 218.496 68.368 218.52 68.152C218.568 67.708 218.718 67.264 218.97 66.82C219.198 66.412 219.504 66.052 219.888 65.74C220.26 65.44 220.698 65.2 221.202 65.02C221.67 64.852 222.216 64.768 222.84 64.768C223.452 64.768 223.968 64.852 224.388 65.02C224.868 65.212 225.252 65.452 225.54 65.74C225.84 66.04 226.062 66.4 226.206 66.82C226.302 67.108 226.35 67.396 226.35 67.684C226.35 68.572 226.092 69.328 225.576 69.952C225.18 70.444 224.622 70.816 223.902 71.068C224.694 71.308 225.264 71.692 225.612 72.22C225.9 72.628 226.044 73.138 226.044 73.75C226.044 73.858 226.032 74.032 226.008 74.272C225.936 74.86 225.768 75.37 225.504 75.802C225.24 76.246 224.898 76.63 224.478 76.954C224.094 77.254 223.602 77.5 223.002 77.692C222.486 77.86 221.892 77.944 221.22 77.944ZM222.138 70.474C222.546 70.474 222.912 70.408 223.236 70.276C223.56 70.144 223.824 69.976 224.028 69.772C224.208 69.592 224.37 69.346 224.514 69.034C224.634 68.782 224.712 68.5 224.748 68.188C224.76 68.116 224.766 68.02 224.766 67.9C224.766 67.684 224.742 67.498 224.694 67.342C224.622 67.066 224.508 66.832 224.352 66.64C224.196 66.448 223.968 66.292 223.668 66.172C223.404 66.064 223.074 66.01 222.678 66.01C222.306 66.01 221.964 66.064 221.652 66.172C221.352 66.28 221.088 66.436 220.86 66.64C220.632 66.844 220.458 67.078 220.338 67.342C220.206 67.63 220.122 67.912 220.086 68.188C220.074 68.272 220.068 68.398 220.068 68.566C220.068 68.782 220.08 68.938 220.104 69.034C220.164 69.31 220.272 69.556 220.428 69.772C220.596 69.988 220.812 70.156 221.076 70.276C221.376 70.408 221.73 70.474 222.138 70.474ZM221.364 76.666C221.748 76.666 222.132 76.606 222.516 76.486C222.888 76.366 223.194 76.204 223.434 76C223.662 75.808 223.866 75.55 224.046 75.226C224.214 74.926 224.316 74.602 224.352 74.254C224.376 74.038 224.388 73.888 224.388 73.804C224.388 73.552 224.352 73.318 224.28 73.102C224.184 72.814 224.016 72.562 223.776 72.346C223.548 72.142 223.278 71.992 222.966 71.896C222.678 71.812 222.348 71.77 221.976 71.77C221.604 71.77 221.256 71.812 220.932 71.896C220.632 71.98 220.332 72.13 220.032 72.346C219.72 72.574 219.486 72.826 219.33 73.102C219.078 73.558 218.952 74.05 218.952 74.578C218.952 74.794 218.982 75.01 219.042 75.226C219.138 75.538 219.282 75.796 219.474 76C219.666 76.216 219.93 76.378 220.266 76.486C220.626 76.606 220.992 76.666 221.364 76.666ZM236.481 76.702C236.661 76.738 236.739 76.846 236.715 77.026L236.625 77.8H233.727L234.429 72.004C234.453 71.764 234.465 71.596 234.465 71.5C234.465 70.384 233.901 69.826 232.773 69.826C231.885 69.826 231.015 70.246 230.163 71.086L229.713 74.65L229.335 77.8H227.733L227.949 76.036L229.191 65.866C228.855 65.818 228.585 65.776 228.381 65.74C228.177 65.692 228.057 65.662 228.021 65.65C227.841 65.614 227.763 65.5 227.787 65.308L227.877 64.552H230.955L230.307 69.916C231.267 69.004 232.299 68.548 233.403 68.548C234.399 68.548 235.119 68.86 235.563 69.484C235.899 69.94 236.067 70.546 236.067 71.302C236.067 71.602 236.055 71.836 236.031 72.004L235.473 76.486C235.785 76.546 236.013 76.594 236.157 76.63C236.313 76.666 236.421 76.69 236.481 76.702Z" fill="#FFF9F9"/>
<path d="M579.122 31.6469C574.765 26.5844 568.964 23.8 562.799 23.8C550.073 23.8 539.718 35.8054 539.718 50.5589C539.718 55.2719 540.779 59.8763 542.795 63.9384L539.521 77.8L551.757 74.0755C555.126 76.2089 558.921 77.3299 562.788 77.3299H562.799C575.514 77.3299 586.098 65.3246 586.098 50.571C586.098 43.4232 583.478 36.7094 579.122 31.6469V31.6469ZM562.799 72.8219C559.347 72.8219 555.968 71.7491 553.026 69.7241L552.329 69.242L545.072 71.4478L547.006 63.2393L546.549 62.3955C544.625 58.8518 543.617 54.7656 543.617 50.5589C543.617 38.3005 552.225 28.3201 562.809 28.3201C567.935 28.3201 572.748 30.6344 576.366 34.8411C579.985 39.0478 582.209 44.6286 582.199 50.571C582.199 62.8415 573.372 72.8219 562.799 72.8219V72.8219ZM573.32 56.1638C572.748 55.8263 569.91 54.2112 569.38 53.9942C568.85 53.7652 568.465 53.6567 568.08 54.3317C567.696 55.0067 566.594 56.5013 566.25 56.9594C565.918 57.4054 565.575 57.4656 565.003 57.1281C561.614 55.1634 559.389 53.6205 557.153 49.1728C556.561 47.9915 557.746 48.0759 558.848 45.5205C559.035 45.0746 558.942 44.6888 558.796 44.3513C558.65 44.0138 557.496 40.7232 557.018 39.3853C556.55 38.0835 556.072 38.2643 555.719 38.2402C555.386 38.2161 555.001 38.2161 554.617 38.2161C554.232 38.2161 553.608 38.3848 553.078 39.0478C552.548 39.7228 551.061 41.338 551.061 44.6286C551.061 47.9192 553.13 51.1013 553.411 51.5473C553.702 51.9933 557.476 58.7433 563.267 61.6482C566.926 63.4804 568.361 63.6371 570.191 63.3237C571.303 63.1308 573.601 61.7085 574.079 60.1415C574.557 58.5746 574.557 57.2366 574.412 56.9594C574.277 56.658 573.892 56.4893 573.32 56.1638Z" fill="#FFF9F9"/>
<path d="M360.422 61.9583L350.233 56.8957C349.798 56.6807 349.314 56.6354 348.855 56.7666C348.396 56.8979 347.985 57.1986 347.686 57.6235L343.174 64.015C336.092 60.144 330.393 53.5368 327.054 45.3267L332.567 40.0953C332.935 39.749 333.195 39.2735 333.308 38.7406C333.421 38.2077 333.381 37.6466 333.195 37.1421L328.828 25.3294C328.624 24.7856 328.262 24.3416 327.805 24.074C327.349 23.8064 326.826 23.7319 326.327 23.8634L316.865 26.3947C316.384 26.5235 315.955 26.8375 315.648 27.2856C315.34 27.7336 315.173 28.2892 315.173 28.8616C315.173 55.9149 334.087 77.8 357.385 77.8C357.879 77.8004 358.358 77.6066 358.745 77.2503C359.131 76.894 359.402 76.3962 359.514 75.8383L361.697 64.8693C361.81 64.288 361.744 63.6793 361.511 63.148C361.279 62.6167 360.894 62.196 360.422 61.9583V61.9583Z" fill="#FFF9F9"/>
<path d="M39.5904 29.2C26.7253 29.2 16.3018 41.2847 16.3018 56.2C16.3018 71.1153 26.7253 83.2 39.5904 83.2C52.4555 83.2 62.8791 71.1153 62.8791 56.2C62.8791 41.2847 52.4555 29.2 39.5904 29.2ZM44.9524 67.3157L36.6699 60.3371C36.3788 60.0867 36.2098 59.6948 36.2098 59.281V40.9581C36.2098 40.2395 36.7169 39.6516 37.3367 39.6516H41.8442C42.4639 39.6516 42.971 40.2395 42.971 40.9581V55.9496L48.9341 60.9794C49.4411 61.404 49.5444 62.2206 49.1782 62.8085L46.5301 67.0327C46.1638 67.6097 45.4595 67.7403 44.9524 67.3157Z" fill="#FFF9F9"/>
</svg>
