<svg width="50" height="50" viewBox="0 0 50 50" fill="none" xmlns="http://www.w3.org/2000/svg">
<path d="M45.8438 29.4257L49.9473 9.11318C50.2436 7.64658 49.2527 6.25 47.9158 6.25H13.8201L13.0245 1.87402C12.8262 0.783301 11.9731 0 10.9834 0H2.08333C0.932726 0 0 1.04932 0 2.34375V3.90625C0 5.20068 0.932726 6.25 2.08333 6.25H8.14957L14.2475 39.7886C12.7886 40.7324 11.8056 42.5021 11.8056 44.5312C11.8056 47.5516 13.9819 50 16.6667 50C19.3514 50 21.5278 47.5516 21.5278 44.5312C21.5278 43.0006 20.9681 41.6177 20.0674 40.625H38.2659C37.3652 41.6177 36.8056 43.0006 36.8056 44.5312C36.8056 47.5516 38.982 50 41.6667 50C44.3514 50 46.5278 47.5516 46.5278 44.5312C46.5278 42.366 45.409 40.4949 43.7866 39.6089L44.2655 37.2382C44.5617 35.7716 43.5708 34.375 42.234 34.375H18.9338L18.3656 31.25H43.8122C44.785 31.25 45.6282 30.4928 45.8438 29.4257Z" fill="#FBF8F8"/>
</svg>
