<svg width="514" height="74" viewBox="0 0 514 74" fill="none" xmlns="http://www.w3.org/2000/svg">
<path d="M55.7422 63.6738C53.3333 67.1243 49.9642 69.7122 45.6348 71.4375C41.3379 73.1302 36.3249 73.9766 30.5957 73.9766C24.8014 73.9766 19.6582 72.6257 15.166 69.9238C10.6738 67.1895 7.19076 63.3158 4.7168 58.3027C2.27539 53.2897 1.02214 47.4792 0.957031 40.8711V34.6699C0.957031 23.9603 3.44727 15.6595 8.42773 9.76758C13.4408 3.87565 20.472 0.929688 29.5215 0.929688C36.9434 0.929688 42.9167 2.83398 47.4414 6.64258C51.9661 10.4186 54.7331 15.7897 55.7422 22.7559H46.3672C44.6094 13.3483 39.0104 8.64453 29.5703 8.64453C23.2878 8.64453 18.5189 10.8581 15.2637 15.2852C12.041 19.6797 10.4134 26.0599 10.3809 34.4258V40.2363C10.3809 48.2116 12.2038 54.5592 15.8496 59.2793C19.4954 63.9668 24.4271 66.3105 30.6445 66.3105C34.1602 66.3105 37.2363 65.9199 39.873 65.1387C42.5098 64.3574 44.6908 63.0391 46.416 61.1836V45.2168H29.9609V37.5996H55.7422V63.6738ZM94.7266 73C94.3099 72.1667 93.9714 70.6823 93.7109 68.5469C90.3516 72.0365 86.3411 73.7812 81.6797 73.7812C77.513 73.7812 74.0885 72.6094 71.4062 70.2656C68.75 67.8958 67.4219 64.901 67.4219 61.2812C67.4219 56.8802 69.0885 53.4688 72.4219 51.0469C75.7812 48.599 80.4948 47.375 86.5625 47.375H93.5938V44.0547C93.5938 41.5286 92.8385 39.5234 91.3281 38.0391C89.8177 36.5286 87.5911 35.7734 84.6484 35.7734C82.0703 35.7734 79.9089 36.4245 78.1641 37.7266C76.4193 39.0286 75.5469 40.6042 75.5469 42.4531H68.2812C68.2812 40.3438 69.0234 38.3125 70.5078 36.3594C72.0182 34.3802 74.0495 32.8177 76.6016 31.6719C79.1797 30.526 82.0052 29.9531 85.0781 29.9531C89.9479 29.9531 93.763 31.1771 96.5234 33.625C99.2839 36.0469 100.716 39.3932 100.82 43.6641V63.1172C100.82 66.9974 101.315 70.0833 102.305 72.375V73H94.7266ZM82.7344 67.4922C85 67.4922 87.1484 66.9062 89.1797 65.7344C91.2109 64.5625 92.6823 63.0391 93.5938 61.1641V52.4922H87.9297C79.0755 52.4922 74.6484 55.0833 74.6484 60.2656C74.6484 62.5312 75.4036 64.3021 76.9141 65.5781C78.4245 66.8542 80.3646 67.4922 82.7344 67.4922ZM118.945 30.7344L119.141 35.4219C122.24 31.776 126.419 29.9531 131.68 29.9531C137.591 29.9531 141.615 32.2188 143.75 36.75C145.156 34.7188 146.979 33.0781 149.219 31.8281C151.484 30.5781 154.154 29.9531 157.227 29.9531C166.497 29.9531 171.211 34.862 171.367 44.6797V73H164.141V45.1094C164.141 42.0885 163.451 39.8359 162.07 38.3516C160.69 36.8411 158.372 36.0859 155.117 36.0859C152.435 36.0859 150.208 36.8932 148.438 38.5078C146.667 40.0964 145.638 42.2448 145.352 44.9531V73H138.086V45.3047C138.086 39.1589 135.078 36.0859 129.062 36.0859C124.323 36.0859 121.081 38.1042 119.336 42.1406V73H112.109V30.7344H118.945ZM199.844 73.7812C194.115 73.7812 189.453 71.9062 185.859 68.1562C182.266 64.3802 180.469 59.3411 180.469 53.0391V51.7109C180.469 47.5182 181.263 43.7812 182.852 40.5C184.466 37.1927 186.706 34.6146 189.57 32.7656C192.461 30.8906 195.586 29.9531 198.945 29.9531C204.44 29.9531 208.711 31.763 211.758 35.3828C214.805 39.0026 216.328 44.1849 216.328 50.9297V53.9375H187.695C187.799 58.1042 189.01 61.4766 191.328 64.0547C193.672 66.6068 196.641 67.8828 200.234 67.8828C202.786 67.8828 204.948 67.362 206.719 66.3203C208.49 65.2786 210.039 63.8984 211.367 62.1797L215.781 65.6172C212.24 71.0599 206.927 73.7812 199.844 73.7812ZM198.945 35.8906C196.029 35.8906 193.581 36.9583 191.602 39.0938C189.622 41.2031 188.398 44.1719 187.93 48H209.102V47.4531C208.893 43.7812 207.904 40.9427 206.133 38.9375C204.362 36.9062 201.966 35.8906 198.945 35.8906ZM249.336 61.7891C249.336 59.8359 248.594 58.3255 247.109 57.2578C245.651 56.1641 243.086 55.2266 239.414 54.4453C235.768 53.6641 232.865 52.7266 230.703 51.6328C228.568 50.5391 226.979 49.237 225.938 47.7266C224.922 46.2161 224.414 44.4193 224.414 42.3359C224.414 38.8724 225.872 35.9427 228.789 33.5469C231.732 31.151 235.482 29.9531 240.039 29.9531C244.831 29.9531 248.711 31.1901 251.68 33.6641C254.674 36.138 256.172 39.3021 256.172 43.1562H248.906C248.906 41.1771 248.06 39.4714 246.367 38.0391C244.701 36.6068 242.591 35.8906 240.039 35.8906C237.409 35.8906 235.352 36.4635 233.867 37.6094C232.383 38.7552 231.641 40.2526 231.641 42.1016C231.641 43.8464 232.331 45.1615 233.711 46.0469C235.091 46.9323 237.578 47.7786 241.172 48.5859C244.792 49.3932 247.721 50.3568 249.961 51.4766C252.201 52.5964 253.854 53.9505 254.922 55.5391C256.016 57.1016 256.562 59.0156 256.562 61.2812C256.562 65.0573 255.052 68.0911 252.031 70.3828C249.01 72.6484 245.091 73.7812 240.273 73.7812C236.888 73.7812 233.893 73.1823 231.289 71.9844C228.685 70.7865 226.641 69.1198 225.156 66.9844C223.698 64.8229 222.969 62.4922 222.969 59.9922H230.195C230.326 62.4141 231.289 64.3411 233.086 65.7734C234.909 67.1797 237.305 67.8828 240.273 67.8828C243.008 67.8828 245.195 67.3359 246.836 66.2422C248.503 65.1224 249.336 63.638 249.336 61.7891ZM300.713 1.90625L323.955 59.9141L347.197 1.90625H359.355V73H349.98V45.3145L350.859 15.4316L327.52 73H320.342L297.051 15.5781L297.979 45.3145V73H288.604V1.90625H300.713ZM399.219 73C398.802 72.1667 398.464 70.6823 398.203 68.5469C394.844 72.0365 390.833 73.7812 386.172 73.7812C382.005 73.7812 378.581 72.6094 375.898 70.2656C373.242 67.8958 371.914 64.901 371.914 61.2812C371.914 56.8802 373.581 53.4688 376.914 51.0469C380.273 48.599 384.987 47.375 391.055 47.375H398.086V44.0547C398.086 41.5286 397.331 39.5234 395.82 38.0391C394.31 36.5286 392.083 35.7734 389.141 35.7734C386.562 35.7734 384.401 36.4245 382.656 37.7266C380.911 39.0286 380.039 40.6042 380.039 42.4531H372.773C372.773 40.3438 373.516 38.3125 375 36.3594C376.51 34.3802 378.542 32.8177 381.094 31.6719C383.672 30.526 386.497 29.9531 389.57 29.9531C394.44 29.9531 398.255 31.1771 401.016 33.625C403.776 36.0469 405.208 39.3932 405.312 43.6641V63.1172C405.312 66.9974 405.807 70.0833 406.797 72.375V73H399.219ZM387.227 67.4922C389.492 67.4922 391.641 66.9062 393.672 65.7344C395.703 64.5625 397.174 63.0391 398.086 61.1641V52.4922H392.422C383.568 52.4922 379.141 55.0833 379.141 60.2656C379.141 62.5312 379.896 64.3021 381.406 65.5781C382.917 66.8542 384.857 67.4922 387.227 67.4922ZM423.477 30.7344L423.711 36.0469C426.94 31.9844 431.159 29.9531 436.367 29.9531C445.299 29.9531 449.805 34.9922 449.883 45.0703V73H442.656V45.0312C442.63 41.9844 441.927 39.7318 440.547 38.2734C439.193 36.8151 437.07 36.0859 434.18 36.0859C431.836 36.0859 429.779 36.7109 428.008 37.9609C426.237 39.2109 424.857 40.8516 423.867 42.8828V73H416.641V30.7344H423.477ZM468.633 73H461.406V30.7344H468.633V73ZM460.82 19.5234C460.82 18.3516 461.172 17.362 461.875 16.5547C462.604 15.7474 463.672 15.3438 465.078 15.3438C466.484 15.3438 467.552 15.7474 468.281 16.5547C469.01 17.362 469.375 18.3516 469.375 19.5234C469.375 20.6953 469.01 21.6719 468.281 22.4531C467.552 23.2344 466.484 23.625 465.078 23.625C463.672 23.625 462.604 23.2344 461.875 22.4531C461.172 21.6719 460.82 20.6953 460.82 19.5234ZM506.328 73C505.911 72.1667 505.573 70.6823 505.312 68.5469C501.953 72.0365 497.943 73.7812 493.281 73.7812C489.115 73.7812 485.69 72.6094 483.008 70.2656C480.352 67.8958 479.023 64.901 479.023 61.2812C479.023 56.8802 480.69 53.4688 484.023 51.0469C487.383 48.599 492.096 47.375 498.164 47.375H505.195V44.0547C505.195 41.5286 504.44 39.5234 502.93 38.0391C501.419 36.5286 499.193 35.7734 496.25 35.7734C493.672 35.7734 491.51 36.4245 489.766 37.7266C488.021 39.0286 487.148 40.6042 487.148 42.4531H479.883C479.883 40.3438 480.625 38.3125 482.109 36.3594C483.62 34.3802 485.651 32.8177 488.203 31.6719C490.781 30.526 493.607 29.9531 496.68 29.9531C501.549 29.9531 505.365 31.1771 508.125 33.625C510.885 36.0469 512.318 39.3932 512.422 43.6641V63.1172C512.422 66.9974 512.917 70.0833 513.906 72.375V73H506.328ZM494.336 67.4922C496.602 67.4922 498.75 66.9062 500.781 65.7344C502.812 64.5625 504.284 63.0391 505.195 61.1641V52.4922H499.531C490.677 52.4922 486.25 55.0833 486.25 60.2656C486.25 62.5312 487.005 64.3021 488.516 65.5781C490.026 66.8542 491.966 67.4922 494.336 67.4922Z" fill="#FFFEFE"/>
</svg>
