<svg width="127" height="39" viewBox="0 0 127 39" fill="none" xmlns="http://www.w3.org/2000/svg">
<path d="M11.3379 7.19727V8.00586C11.3379 8.9668 11.2178 9.82812 10.9775 10.5898C10.7373 11.3516 10.3916 11.999 9.94043 12.5322C9.48926 13.0654 8.94727 13.4727 8.31445 13.7539C7.6875 14.0352 6.98438 14.1758 6.20508 14.1758C5.44922 14.1758 4.75488 14.0352 4.12207 13.7539C3.49512 13.4727 2.9502 13.0654 2.4873 12.5322C2.03027 11.999 1.67578 11.3516 1.42383 10.5898C1.17188 9.82812 1.0459 8.9668 1.0459 8.00586V7.19727C1.0459 6.23633 1.16895 5.37793 1.41504 4.62207C1.66699 3.86035 2.02148 3.21289 2.47852 2.67969C2.93555 2.14063 3.47754 1.73047 4.10449 1.44922C4.7373 1.16797 5.43164 1.02734 6.1875 1.02734C6.9668 1.02734 7.66992 1.16797 8.29688 1.44922C8.92969 1.73047 9.47168 2.14063 9.92285 2.67969C10.3799 3.21289 10.7285 3.86035 10.9688 4.62207C11.2148 5.37793 11.3379 6.23633 11.3379 7.19727ZM9.65918 8.00586V7.17969C9.65918 6.41797 9.58008 5.74414 9.42188 5.1582C9.26953 4.57227 9.04395 4.08008 8.74512 3.68164C8.44629 3.2832 8.08008 2.98145 7.64648 2.77637C7.21875 2.57129 6.73242 2.46875 6.1875 2.46875C5.66016 2.46875 5.18262 2.57129 4.75488 2.77637C4.33301 2.98145 3.96973 3.2832 3.66504 3.68164C3.36621 4.08008 3.13477 4.57227 2.9707 5.1582C2.80664 5.74414 2.72461 6.41797 2.72461 7.17969V8.00586C2.72461 8.77344 2.80664 9.45312 2.9707 10.0449C3.13477 10.6309 3.36914 11.126 3.67383 11.5303C3.98438 11.9287 4.35059 12.2305 4.77246 12.4355C5.2002 12.6406 5.67773 12.7432 6.20508 12.7432C6.75586 12.7432 7.24512 12.6406 7.67285 12.4355C8.10059 12.2305 8.46094 11.9287 8.75391 11.5303C9.05273 11.126 9.27832 10.6309 9.43066 10.0449C9.58301 9.45312 9.65918 8.77344 9.65918 8.00586ZM15.3984 0.5V14H13.7637V0.5H15.3984ZM23.6162 12.374V7.47852C23.6162 7.10352 23.54 6.77832 23.3877 6.50293C23.2412 6.22168 23.0186 6.00488 22.7197 5.85254C22.4209 5.7002 22.0518 5.62402 21.6123 5.62402C21.2021 5.62402 20.8418 5.69434 20.5312 5.83496C20.2266 5.97559 19.9863 6.16016 19.8105 6.38867C19.6406 6.61719 19.5557 6.86328 19.5557 7.12695H17.9297C17.9297 6.78711 18.0176 6.4502 18.1934 6.11621C18.3691 5.78223 18.6211 5.48047 18.9492 5.21094C19.2832 4.93555 19.6816 4.71875 20.1445 4.56055C20.6133 4.39648 21.1348 4.31445 21.709 4.31445C22.4004 4.31445 23.0098 4.43164 23.5371 4.66602C24.0703 4.90039 24.4863 5.25488 24.7852 5.72949C25.0898 6.19824 25.2422 6.78711 25.2422 7.49609V11.9258C25.2422 12.2422 25.2686 12.5791 25.3213 12.9365C25.3799 13.2939 25.4648 13.6016 25.5762 13.8594V14H23.8799C23.7979 13.8125 23.7334 13.5635 23.6865 13.2529C23.6396 12.9365 23.6162 12.6436 23.6162 12.374ZM23.8975 8.23438L23.915 9.37695H22.2715C21.8086 9.37695 21.3955 9.41504 21.0322 9.49121C20.6689 9.56152 20.3643 9.66992 20.1182 9.81641C19.8721 9.96289 19.6846 10.1475 19.5557 10.3701C19.4268 10.5869 19.3623 10.8418 19.3623 11.1348C19.3623 11.4336 19.4297 11.7061 19.5645 11.9521C19.6992 12.1982 19.9014 12.3945 20.1709 12.541C20.4463 12.6816 20.7832 12.752 21.1816 12.752C21.6797 12.752 22.1191 12.6465 22.5 12.4355C22.8809 12.2246 23.1826 11.9668 23.4053 11.6621C23.6338 11.3574 23.7568 11.0615 23.7744 10.7744L24.4688 11.5566C24.4277 11.8027 24.3164 12.0752 24.1348 12.374C23.9531 12.6729 23.71 12.96 23.4053 13.2354C23.1064 13.5049 22.749 13.7305 22.333 13.9121C21.9229 14.0879 21.46 14.1758 20.9443 14.1758C20.2998 14.1758 19.7344 14.0498 19.248 13.7979C18.7676 13.5459 18.3926 13.209 18.123 12.7871C17.8594 12.3594 17.7275 11.8818 17.7275 11.3545C17.7275 10.8447 17.8271 10.3965 18.0264 10.0098C18.2256 9.61719 18.5127 9.29199 18.8877 9.03418C19.2627 8.77051 19.7139 8.57129 20.2412 8.43652C20.7686 8.30176 21.3574 8.23438 22.0078 8.23438H23.8975ZM20.9883 3.08398L22.6934 0.5H24.6533L22.2979 3.08398H20.9883ZM29.2764 12.0664V13.376C29.2764 13.9092 29.1416 14.4717 28.8721 15.0635C28.6025 15.6611 28.2246 16.1592 27.7383 16.5576L26.8154 15.916C27.0029 15.6582 27.1611 15.3945 27.29 15.125C27.4189 14.8613 27.5156 14.5859 27.5801 14.2988C27.6504 14.0176 27.6855 13.7188 27.6855 13.4023V12.0664H29.2764ZM38.2412 14H36.6152V3.48828C36.6152 2.80273 36.7383 2.22559 36.9844 1.75684C37.2363 1.28223 37.5967 0.924805 38.0654 0.68457C38.5342 0.438477 39.0908 0.31543 39.7354 0.31543C39.9229 0.31543 40.1104 0.327148 40.2979 0.350586C40.4912 0.374023 40.6787 0.40918 40.8604 0.456055L40.7725 1.7832C40.6494 1.75391 40.5088 1.7334 40.3506 1.72168C40.1982 1.70996 40.0459 1.7041 39.8936 1.7041C39.5479 1.7041 39.249 1.77441 38.9971 1.91504C38.751 2.0498 38.5635 2.24902 38.4346 2.5127C38.3057 2.77637 38.2412 3.10156 38.2412 3.48828V14ZM40.2627 4.49023V5.73828H35.1123V4.49023H40.2627ZM47.6807 12.374V7.47852C47.6807 7.10352 47.6045 6.77832 47.4521 6.50293C47.3057 6.22168 47.083 6.00488 46.7842 5.85254C46.4854 5.7002 46.1162 5.62402 45.6768 5.62402C45.2666 5.62402 44.9062 5.69434 44.5957 5.83496C44.291 5.97559 44.0508 6.16016 43.875 6.38867C43.7051 6.61719 43.6201 6.86328 43.6201 7.12695H41.9941C41.9941 6.78711 42.082 6.4502 42.2578 6.11621C42.4336 5.78223 42.6855 5.48047 43.0137 5.21094C43.3477 4.93555 43.7461 4.71875 44.209 4.56055C44.6777 4.39648 45.1992 4.31445 45.7734 4.31445C46.4648 4.31445 47.0742 4.43164 47.6016 4.66602C48.1348 4.90039 48.5508 5.25488 48.8496 5.72949C49.1543 6.19824 49.3066 6.78711 49.3066 7.49609V11.9258C49.3066 12.2422 49.333 12.5791 49.3857 12.9365C49.4443 13.2939 49.5293 13.6016 49.6406 13.8594V14H47.9443C47.8623 13.8125 47.7979 13.5635 47.751 13.2529C47.7041 12.9365 47.6807 12.6436 47.6807 12.374ZM47.9619 8.23438L47.9795 9.37695H46.3359C45.873 9.37695 45.46 9.41504 45.0967 9.49121C44.7334 9.56152 44.4287 9.66992 44.1826 9.81641C43.9365 9.96289 43.749 10.1475 43.6201 10.3701C43.4912 10.5869 43.4268 10.8418 43.4268 11.1348C43.4268 11.4336 43.4941 11.7061 43.6289 11.9521C43.7637 12.1982 43.9658 12.3945 44.2354 12.541C44.5107 12.6816 44.8477 12.752 45.2461 12.752C45.7441 12.752 46.1836 12.6465 46.5645 12.4355C46.9453 12.2246 47.2471 11.9668 47.4697 11.6621C47.6982 11.3574 47.8213 11.0615 47.8389 10.7744L48.5332 11.5566C48.4922 11.8027 48.3809 12.0752 48.1992 12.374C48.0176 12.6729 47.7744 12.96 47.4697 13.2354C47.1709 13.5049 46.8135 13.7305 46.3975 13.9121C45.9873 14.0879 45.5244 14.1758 45.0088 14.1758C44.3643 14.1758 43.7988 14.0498 43.3125 13.7979C42.832 13.5459 42.457 13.209 42.1875 12.7871C41.9238 12.3594 41.792 11.8818 41.792 11.3545C41.792 10.8447 41.8916 10.3965 42.0908 10.0098C42.29 9.61719 42.5771 9.29199 42.9521 9.03418C43.3271 8.77051 43.7783 8.57129 44.3057 8.43652C44.833 8.30176 45.4219 8.23438 46.0723 8.23438H47.9619ZM55.6699 12.8398C56.0566 12.8398 56.4141 12.7607 56.7422 12.6025C57.0703 12.4443 57.3398 12.2275 57.5508 11.9521C57.7617 11.6709 57.8818 11.3516 57.9111 10.9941H59.458C59.4287 11.5566 59.2383 12.0811 58.8867 12.5674C58.541 13.0479 58.0869 13.4375 57.5244 13.7363C56.9619 14.0293 56.3438 14.1758 55.6699 14.1758C54.9551 14.1758 54.3311 14.0498 53.7979 13.7979C53.2705 13.5459 52.8311 13.2002 52.4795 12.7607C52.1338 12.3213 51.873 11.8174 51.6973 11.249C51.5273 10.6748 51.4424 10.0684 51.4424 9.42969V9.06055C51.4424 8.42188 51.5273 7.81836 51.6973 7.25C51.873 6.67578 52.1338 6.16895 52.4795 5.72949C52.8311 5.29004 53.2705 4.94434 53.7979 4.69238C54.3311 4.44043 54.9551 4.31445 55.6699 4.31445C56.4141 4.31445 57.0645 4.4668 57.6211 4.77148C58.1777 5.07031 58.6143 5.48047 58.9307 6.00195C59.2529 6.51758 59.4287 7.10352 59.458 7.75977H57.9111C57.8818 7.36719 57.7705 7.0127 57.5771 6.69629C57.3896 6.37988 57.1318 6.12793 56.8037 5.94043C56.4814 5.74707 56.1035 5.65039 55.6699 5.65039C55.1719 5.65039 54.7529 5.75 54.4131 5.94922C54.0791 6.14258 53.8125 6.40625 53.6133 6.74023C53.4199 7.06836 53.2793 7.43457 53.1914 7.83887C53.1094 8.2373 53.0684 8.64453 53.0684 9.06055V9.42969C53.0684 9.8457 53.1094 10.2559 53.1914 10.6602C53.2734 11.0645 53.4111 11.4307 53.6045 11.7588C53.8037 12.0869 54.0703 12.3506 54.4043 12.5498C54.7441 12.7432 55.166 12.8398 55.6699 12.8398ZM54.7734 14.0879H55.9424L55.8369 14.5537C56.1768 14.6123 56.4844 14.7529 56.7598 14.9756C57.041 15.1982 57.1816 15.5645 57.1816 16.0742C57.1816 16.3496 57.123 16.5986 57.0059 16.8213C56.8945 17.0498 56.7275 17.2432 56.5049 17.4014C56.2822 17.5654 56.0039 17.6914 55.6699 17.7793C55.3418 17.8672 54.958 17.9111 54.5186 17.9111L54.457 16.9707C54.7266 16.9707 54.9697 16.9414 55.1865 16.8828C55.4092 16.8242 55.585 16.7305 55.7139 16.6016C55.8486 16.4727 55.916 16.3057 55.916 16.1006C55.916 15.9072 55.8662 15.7549 55.7666 15.6436C55.667 15.5322 55.5117 15.4473 55.3008 15.3887C55.0957 15.3359 54.8291 15.2979 54.501 15.2744L54.7734 14.0879ZM66.8936 12.374V7.47852C66.8936 7.10352 66.8174 6.77832 66.665 6.50293C66.5186 6.22168 66.2959 6.00488 65.9971 5.85254C65.6982 5.7002 65.3291 5.62402 64.8896 5.62402C64.4795 5.62402 64.1191 5.69434 63.8086 5.83496C63.5039 5.97559 63.2637 6.16016 63.0879 6.38867C62.918 6.61719 62.833 6.86328 62.833 7.12695H61.207C61.207 6.78711 61.2949 6.4502 61.4707 6.11621C61.6465 5.78223 61.8984 5.48047 62.2266 5.21094C62.5605 4.93555 62.959 4.71875 63.4219 4.56055C63.8906 4.39648 64.4121 4.31445 64.9863 4.31445C65.6777 4.31445 66.2871 4.43164 66.8145 4.66602C67.3477 4.90039 67.7637 5.25488 68.0625 5.72949C68.3672 6.19824 68.5195 6.78711 68.5195 7.49609V11.9258C68.5195 12.2422 68.5459 12.5791 68.5986 12.9365C68.6572 13.2939 68.7422 13.6016 68.8535 13.8594V14H67.1572C67.0752 13.8125 67.0107 13.5635 66.9639 13.2529C66.917 12.9365 66.8936 12.6436 66.8936 12.374ZM67.1748 8.23438L67.1924 9.37695H65.5488C65.0859 9.37695 64.6729 9.41504 64.3096 9.49121C63.9463 9.56152 63.6416 9.66992 63.3955 9.81641C63.1494 9.96289 62.9619 10.1475 62.833 10.3701C62.7041 10.5869 62.6396 10.8418 62.6396 11.1348C62.6396 11.4336 62.707 11.7061 62.8418 11.9521C62.9766 12.1982 63.1787 12.3945 63.4482 12.541C63.7236 12.6816 64.0605 12.752 64.459 12.752C64.957 12.752 65.3965 12.6465 65.7773 12.4355C66.1582 12.2246 66.46 11.9668 66.6826 11.6621C66.9111 11.3574 67.0342 11.0615 67.0518 10.7744L67.7461 11.5566C67.7051 11.8027 67.5938 12.0752 67.4121 12.374C67.2305 12.6729 66.9873 12.96 66.6826 13.2354C66.3838 13.5049 66.0264 13.7305 65.6104 13.9121C65.2002 14.0879 64.7373 14.1758 64.2217 14.1758C63.5771 14.1758 63.0117 14.0498 62.5254 13.7979C62.0449 13.5459 61.6699 13.209 61.4004 12.7871C61.1367 12.3594 61.0049 11.8818 61.0049 11.3545C61.0049 10.8447 61.1045 10.3965 61.3037 10.0098C61.5029 9.61719 61.79 9.29199 62.165 9.03418C62.54 8.77051 62.9912 8.57129 63.5186 8.43652C64.0459 8.30176 64.6348 8.23438 65.2852 8.23438H67.1748ZM81.0791 11.4775C81.0791 11.2432 81.0264 11.0264 80.9209 10.8271C80.8213 10.6221 80.6133 10.4375 80.2969 10.2734C79.9863 10.1035 79.5176 9.95703 78.8906 9.83398C78.3633 9.72266 77.8857 9.59082 77.458 9.43848C77.0361 9.28613 76.6758 9.10156 76.377 8.88477C76.084 8.66797 75.8584 8.41309 75.7002 8.12012C75.542 7.82715 75.4629 7.48438 75.4629 7.0918C75.4629 6.7168 75.5449 6.3623 75.709 6.02832C75.8789 5.69434 76.1162 5.39844 76.4209 5.14062C76.7314 4.88281 77.1035 4.68066 77.5371 4.53418C77.9707 4.3877 78.4541 4.31445 78.9873 4.31445C79.749 4.31445 80.3994 4.44922 80.9385 4.71875C81.4775 4.98828 81.8906 5.34863 82.1777 5.7998C82.4648 6.24512 82.6084 6.74023 82.6084 7.28516H80.9824C80.9824 7.02148 80.9033 6.7666 80.7451 6.52051C80.5928 6.26855 80.3672 6.06055 80.0684 5.89648C79.7754 5.73242 79.415 5.65039 78.9873 5.65039C78.5361 5.65039 78.1699 5.7207 77.8887 5.86133C77.6133 5.99609 77.4111 6.16895 77.2822 6.37988C77.1592 6.59082 77.0977 6.81348 77.0977 7.04785C77.0977 7.22363 77.127 7.38184 77.1855 7.52246C77.25 7.65723 77.3613 7.7832 77.5195 7.90039C77.6777 8.01172 77.9004 8.11719 78.1875 8.2168C78.4746 8.31641 78.8408 8.41602 79.2861 8.51562C80.0654 8.69141 80.707 8.90234 81.2109 9.14844C81.7148 9.39453 82.0898 9.69629 82.3359 10.0537C82.582 10.4111 82.7051 10.8447 82.7051 11.3545C82.7051 11.7705 82.6172 12.1514 82.4414 12.4971C82.2715 12.8428 82.0225 13.1416 81.6943 13.3936C81.3721 13.6396 80.9854 13.833 80.5342 13.9736C80.0889 14.1084 79.5879 14.1758 79.0312 14.1758C78.1934 14.1758 77.4844 14.0264 76.9043 13.7275C76.3242 13.4287 75.8848 13.042 75.5859 12.5674C75.2871 12.0928 75.1377 11.5918 75.1377 11.0645H76.7725C76.7959 11.5098 76.9248 11.8643 77.1592 12.1279C77.3936 12.3857 77.6807 12.5703 78.0205 12.6816C78.3604 12.7871 78.6973 12.8398 79.0312 12.8398C79.4766 12.8398 79.8486 12.7812 80.1475 12.6641C80.4521 12.5469 80.6836 12.3857 80.8418 12.1807C81 11.9756 81.0791 11.7412 81.0791 11.4775ZM88.7871 14.1758C88.125 14.1758 87.5244 14.0645 86.9854 13.8418C86.4521 13.6133 85.9922 13.2939 85.6055 12.8838C85.2246 12.4736 84.9316 11.9873 84.7266 11.4248C84.5215 10.8623 84.4189 10.2471 84.4189 9.5791V9.20996C84.4189 8.43652 84.5332 7.74805 84.7617 7.14453C84.9902 6.53516 85.3008 6.01953 85.6934 5.59766C86.0859 5.17578 86.5312 4.85645 87.0293 4.63965C87.5273 4.42285 88.043 4.31445 88.5762 4.31445C89.2559 4.31445 89.8418 4.43164 90.334 4.66602C90.832 4.90039 91.2393 5.22852 91.5557 5.65039C91.8721 6.06641 92.1064 6.55859 92.2588 7.12695C92.4111 7.68945 92.4873 8.30469 92.4873 8.97266V9.70215H85.3857V8.375H90.8613V8.25195C90.8379 7.83008 90.75 7.41992 90.5977 7.02148C90.4512 6.62305 90.2168 6.29492 89.8945 6.03711C89.5723 5.7793 89.1328 5.65039 88.5762 5.65039C88.207 5.65039 87.8672 5.72949 87.5566 5.8877C87.2461 6.04004 86.9795 6.26855 86.7568 6.57324C86.5342 6.87793 86.3613 7.25 86.2383 7.68945C86.1152 8.12891 86.0537 8.63574 86.0537 9.20996V9.5791C86.0537 10.0303 86.1152 10.4551 86.2383 10.8535C86.3672 11.2461 86.5518 11.5918 86.792 11.8906C87.0381 12.1895 87.334 12.4238 87.6797 12.5938C88.0312 12.7637 88.4297 12.8486 88.875 12.8486C89.4492 12.8486 89.9355 12.7314 90.334 12.4971C90.7324 12.2627 91.0811 11.9492 91.3799 11.5566L92.3643 12.3389C92.1592 12.6494 91.8984 12.9453 91.582 13.2266C91.2656 13.5078 90.876 13.7363 90.4131 13.9121C89.9561 14.0879 89.4141 14.1758 88.7871 14.1758ZM100.204 11.8027V4.49023H101.839V14H100.283L100.204 11.8027ZM100.512 9.79883L101.188 9.78125C101.188 10.4141 101.121 11 100.986 11.5391C100.857 12.0723 100.646 12.5352 100.354 12.9277C100.061 13.3203 99.6768 13.6279 99.2021 13.8506C98.7275 14.0674 98.1504 14.1758 97.4707 14.1758C97.0078 14.1758 96.583 14.1084 96.1963 13.9736C95.8154 13.8389 95.4873 13.6309 95.2119 13.3496C94.9365 13.0684 94.7227 12.7021 94.5703 12.251C94.4238 11.7998 94.3506 11.2578 94.3506 10.625V4.49023H95.9766V10.6426C95.9766 11.0703 96.0234 11.4248 96.1172 11.7061C96.2168 11.9814 96.3486 12.2012 96.5127 12.3652C96.6826 12.5234 96.8701 12.6348 97.0752 12.6992C97.2861 12.7637 97.5029 12.7959 97.7256 12.7959C98.417 12.7959 98.9648 12.6641 99.3691 12.4004C99.7734 12.1309 100.063 11.7705 100.239 11.3193C100.421 10.8623 100.512 10.3555 100.512 9.79883ZM5.04492 33.8398C5.43164 33.8398 5.78906 33.7607 6.11719 33.6025C6.44531 33.4443 6.71484 33.2275 6.92578 32.9521C7.13672 32.6709 7.25684 32.3516 7.28613 31.9941H8.83301C8.80371 32.5566 8.61328 33.0811 8.26172 33.5674C7.91602 34.0479 7.46191 34.4375 6.89941 34.7363C6.33691 35.0293 5.71875 35.1758 5.04492 35.1758C4.33008 35.1758 3.70605 35.0498 3.17285 34.7979C2.64551 34.5459 2.20605 34.2002 1.85449 33.7607C1.50879 33.3213 1.24805 32.8174 1.07227 32.249C0.902344 31.6748 0.817383 31.0684 0.817383 30.4297V30.0605C0.817383 29.4219 0.902344 28.8184 1.07227 28.25C1.24805 27.6758 1.50879 27.1689 1.85449 26.7295C2.20605 26.29 2.64551 25.9443 3.17285 25.6924C3.70605 25.4404 4.33008 25.3145 5.04492 25.3145C5.78906 25.3145 6.43945 25.4668 6.99609 25.7715C7.55273 26.0703 7.98926 26.4805 8.30566 27.002C8.62793 27.5176 8.80371 28.1035 8.83301 28.7598H7.28613C7.25684 28.3672 7.14551 28.0127 6.95215 27.6963C6.76465 27.3799 6.50684 27.1279 6.17871 26.9404C5.85645 26.7471 5.47852 26.6504 5.04492 26.6504C4.54688 26.6504 4.12793 26.75 3.78809 26.9492C3.4541 27.1426 3.1875 27.4062 2.98828 27.7402C2.79492 28.0684 2.6543 28.4346 2.56641 28.8389C2.48438 29.2373 2.44336 29.6445 2.44336 30.0605V30.4297C2.44336 30.8457 2.48438 31.2559 2.56641 31.6602C2.64844 32.0645 2.78613 32.4307 2.97949 32.7588C3.17871 33.0869 3.44531 33.3506 3.7793 33.5498C4.11914 33.7432 4.54102 33.8398 5.04492 33.8398ZM16.2686 33.374V28.4785C16.2686 28.1035 16.1924 27.7783 16.04 27.5029C15.8936 27.2217 15.6709 27.0049 15.3721 26.8525C15.0732 26.7002 14.7041 26.624 14.2646 26.624C13.8545 26.624 13.4941 26.6943 13.1836 26.835C12.8789 26.9756 12.6387 27.1602 12.4629 27.3887C12.293 27.6172 12.208 27.8633 12.208 28.127H10.582C10.582 27.7871 10.6699 27.4502 10.8457 27.1162C11.0215 26.7822 11.2734 26.4805 11.6016 26.2109C11.9355 25.9355 12.334 25.7188 12.7969 25.5605C13.2656 25.3965 13.7871 25.3145 14.3613 25.3145C15.0527 25.3145 15.6621 25.4316 16.1895 25.666C16.7227 25.9004 17.1387 26.2549 17.4375 26.7295C17.7422 27.1982 17.8945 27.7871 17.8945 28.4961V32.9258C17.8945 33.2422 17.9209 33.5791 17.9736 33.9365C18.0322 34.2939 18.1172 34.6016 18.2285 34.8594V35H16.5322C16.4502 34.8125 16.3857 34.5635 16.3389 34.2529C16.292 33.9365 16.2686 33.6436 16.2686 33.374ZM16.5498 29.2344L16.5674 30.377H14.9238C14.4609 30.377 14.0479 30.415 13.6846 30.4912C13.3213 30.5615 13.0166 30.6699 12.7705 30.8164C12.5244 30.9629 12.3369 31.1475 12.208 31.3701C12.0791 31.5869 12.0146 31.8418 12.0146 32.1348C12.0146 32.4336 12.082 32.7061 12.2168 32.9521C12.3516 33.1982 12.5537 33.3945 12.8232 33.541C13.0986 33.6816 13.4355 33.752 13.834 33.752C14.332 33.752 14.7715 33.6465 15.1523 33.4355C15.5332 33.2246 15.835 32.9668 16.0576 32.6621C16.2861 32.3574 16.4092 32.0615 16.4268 31.7744L17.1211 32.5566C17.0801 32.8027 16.9688 33.0752 16.7871 33.374C16.6055 33.6729 16.3623 33.96 16.0576 34.2354C15.7588 34.5049 15.4014 34.7305 14.9854 34.9121C14.5752 35.0879 14.1123 35.1758 13.5967 35.1758C12.9521 35.1758 12.3867 35.0498 11.9004 34.7979C11.4199 34.5459 11.0449 34.209 10.7754 33.7871C10.5117 33.3594 10.3799 32.8818 10.3799 32.3545C10.3799 31.8447 10.4795 31.3965 10.6787 31.0098C10.8779 30.6172 11.165 30.292 11.54 30.0342C11.915 29.7705 12.3662 29.5713 12.8936 29.4365C13.4209 29.3018 14.0098 29.2344 14.6602 29.2344H16.5498ZM26.4463 33.1543V21.5H28.0811V35H26.5869L26.4463 33.1543ZM20.0479 30.3506V30.166C20.0479 29.4395 20.1357 28.7803 20.3115 28.1885C20.4932 27.5908 20.748 27.0781 21.0762 26.6504C21.4102 26.2227 21.8057 25.8945 22.2627 25.666C22.7256 25.4316 23.2412 25.3145 23.8096 25.3145C24.4072 25.3145 24.9287 25.4199 25.374 25.6309C25.8252 25.8359 26.2061 26.1377 26.5166 26.5361C26.833 26.9287 27.082 27.4033 27.2637 27.96C27.4453 28.5166 27.5713 29.1465 27.6416 29.8496V30.6582C27.5771 31.3555 27.4512 31.9824 27.2637 32.5391C27.082 33.0957 26.833 33.5703 26.5166 33.9629C26.2061 34.3555 25.8252 34.6572 25.374 34.8682C24.9229 35.0732 24.3955 35.1758 23.792 35.1758C23.2354 35.1758 22.7256 35.0557 22.2627 34.8154C21.8057 34.5752 21.4102 34.2383 21.0762 33.8047C20.748 33.3711 20.4932 32.8613 20.3115 32.2754C20.1357 31.6836 20.0479 31.042 20.0479 30.3506ZM21.6826 30.166V30.3506C21.6826 30.8252 21.7295 31.2705 21.8232 31.6865C21.9229 32.1025 22.0752 32.4688 22.2803 32.7852C22.4854 33.1016 22.7461 33.3506 23.0625 33.5322C23.3789 33.708 23.7568 33.7959 24.1963 33.7959C24.7354 33.7959 25.1777 33.6816 25.5234 33.4531C25.875 33.2246 26.1562 32.9229 26.3672 32.5479C26.5781 32.1729 26.7422 31.7656 26.8594 31.3262V29.208C26.7891 28.8857 26.6865 28.5752 26.5518 28.2764C26.4229 27.9717 26.2529 27.7021 26.042 27.4678C25.8369 27.2275 25.582 27.0371 25.2773 26.8965C24.9785 26.7559 24.624 26.6855 24.2139 26.6855C23.7686 26.6855 23.3848 26.7793 23.0625 26.9668C22.7461 27.1484 22.4854 27.4004 22.2803 27.7227C22.0752 28.0391 21.9229 28.4082 21.8232 28.8301C21.7295 29.2461 21.6826 29.6914 21.6826 30.166ZM36.2197 33.374V28.4785C36.2197 28.1035 36.1436 27.7783 35.9912 27.5029C35.8447 27.2217 35.6221 27.0049 35.3232 26.8525C35.0244 26.7002 34.6553 26.624 34.2158 26.624C33.8057 26.624 33.4453 26.6943 33.1348 26.835C32.8301 26.9756 32.5898 27.1602 32.4141 27.3887C32.2441 27.6172 32.1592 27.8633 32.1592 28.127H30.5332C30.5332 27.7871 30.6211 27.4502 30.7969 27.1162C30.9727 26.7822 31.2246 26.4805 31.5527 26.2109C31.8867 25.9355 32.2852 25.7188 32.748 25.5605C33.2168 25.3965 33.7383 25.3145 34.3125 25.3145C35.0039 25.3145 35.6133 25.4316 36.1406 25.666C36.6738 25.9004 37.0898 26.2549 37.3887 26.7295C37.6934 27.1982 37.8457 27.7871 37.8457 28.4961V32.9258C37.8457 33.2422 37.8721 33.5791 37.9248 33.9365C37.9834 34.2939 38.0684 34.6016 38.1797 34.8594V35H36.4834C36.4014 34.8125 36.3369 34.5635 36.29 34.2529C36.2432 33.9365 36.2197 33.6436 36.2197 33.374ZM36.501 29.2344L36.5186 30.377H34.875C34.4121 30.377 33.999 30.415 33.6357 30.4912C33.2725 30.5615 32.9678 30.6699 32.7217 30.8164C32.4756 30.9629 32.2881 31.1475 32.1592 31.3701C32.0303 31.5869 31.9658 31.8418 31.9658 32.1348C31.9658 32.4336 32.0332 32.7061 32.168 32.9521C32.3027 33.1982 32.5049 33.3945 32.7744 33.541C33.0498 33.6816 33.3867 33.752 33.7852 33.752C34.2832 33.752 34.7227 33.6465 35.1035 33.4355C35.4844 33.2246 35.7861 32.9668 36.0088 32.6621C36.2373 32.3574 36.3604 32.0615 36.3779 31.7744L37.0723 32.5566C37.0312 32.8027 36.9199 33.0752 36.7383 33.374C36.5566 33.6729 36.3135 33.96 36.0088 34.2354C35.71 34.5049 35.3525 34.7305 34.9365 34.9121C34.5264 35.0879 34.0635 35.1758 33.5479 35.1758C32.9033 35.1758 32.3379 35.0498 31.8516 34.7979C31.3711 34.5459 30.9961 34.209 30.7266 33.7871C30.4629 33.3594 30.3311 32.8818 30.3311 32.3545C30.3311 31.8447 30.4307 31.3965 30.6299 31.0098C30.8291 30.6172 31.1162 30.292 31.4912 30.0342C31.8662 29.7705 32.3174 29.5713 32.8447 29.4365C33.3721 29.3018 33.9609 29.2344 34.6113 29.2344H36.501ZM45.9404 32.4775C45.9404 32.2432 45.8877 32.0264 45.7822 31.8271C45.6826 31.6221 45.4746 31.4375 45.1582 31.2734C44.8477 31.1035 44.3789 30.957 43.752 30.834C43.2246 30.7227 42.7471 30.5908 42.3193 30.4385C41.8975 30.2861 41.5371 30.1016 41.2383 29.8848C40.9453 29.668 40.7197 29.4131 40.5615 29.1201C40.4033 28.8271 40.3242 28.4844 40.3242 28.0918C40.3242 27.7168 40.4062 27.3623 40.5703 27.0283C40.7402 26.6943 40.9775 26.3984 41.2822 26.1406C41.5928 25.8828 41.9648 25.6807 42.3984 25.5342C42.832 25.3877 43.3154 25.3145 43.8486 25.3145C44.6104 25.3145 45.2607 25.4492 45.7998 25.7188C46.3389 25.9883 46.752 26.3486 47.0391 26.7998C47.3262 27.2451 47.4697 27.7402 47.4697 28.2852H45.8438C45.8438 28.0215 45.7646 27.7666 45.6064 27.5205C45.4541 27.2686 45.2285 27.0605 44.9297 26.8965C44.6367 26.7324 44.2764 26.6504 43.8486 26.6504C43.3975 26.6504 43.0312 26.7207 42.75 26.8613C42.4746 26.9961 42.2725 27.1689 42.1436 27.3799C42.0205 27.5908 41.959 27.8135 41.959 28.0479C41.959 28.2236 41.9883 28.3818 42.0469 28.5225C42.1113 28.6572 42.2227 28.7832 42.3809 28.9004C42.5391 29.0117 42.7617 29.1172 43.0488 29.2168C43.3359 29.3164 43.7021 29.416 44.1475 29.5156C44.9268 29.6914 45.5684 29.9023 46.0723 30.1484C46.5762 30.3945 46.9512 30.6963 47.1973 31.0537C47.4434 31.4111 47.5664 31.8447 47.5664 32.3545C47.5664 32.7705 47.4785 33.1514 47.3027 33.4971C47.1328 33.8428 46.8838 34.1416 46.5557 34.3936C46.2334 34.6396 45.8467 34.833 45.3955 34.9736C44.9502 35.1084 44.4492 35.1758 43.8926 35.1758C43.0547 35.1758 42.3457 35.0264 41.7656 34.7275C41.1855 34.4287 40.7461 34.042 40.4473 33.5674C40.1484 33.0928 39.999 32.5918 39.999 32.0645H41.6338C41.6572 32.5098 41.7861 32.8643 42.0205 33.1279C42.2549 33.3857 42.542 33.5703 42.8818 33.6816C43.2217 33.7871 43.5586 33.8398 43.8926 33.8398C44.3379 33.8398 44.71 33.7812 45.0088 33.6641C45.3135 33.5469 45.5449 33.3857 45.7031 33.1807C45.8613 32.9756 45.9404 32.7412 45.9404 32.4775ZM53.6836 25.4902V26.7383H48.542V25.4902H53.6836ZM50.2822 23.1787H51.9082V32.6445C51.9082 32.9668 51.958 33.21 52.0576 33.374C52.1572 33.5381 52.2861 33.6465 52.4443 33.6992C52.6025 33.752 52.7725 33.7783 52.9541 33.7783C53.0889 33.7783 53.2295 33.7666 53.376 33.7432C53.5283 33.7139 53.6426 33.6904 53.7188 33.6729L53.7275 35C53.5986 35.041 53.4287 35.0791 53.2178 35.1143C53.0127 35.1553 52.7637 35.1758 52.4707 35.1758C52.0723 35.1758 51.7061 35.0967 51.3721 34.9385C51.0381 34.7803 50.7715 34.5166 50.5723 34.1475C50.3789 33.7725 50.2822 33.2686 50.2822 32.6357V23.1787ZM57.2168 26.9844V35H55.5908V25.4902H57.1729L57.2168 26.9844ZM60.1875 25.4375L60.1787 26.9492C60.0439 26.9199 59.915 26.9023 59.792 26.8965C59.6748 26.8848 59.54 26.8789 59.3877 26.8789C59.0127 26.8789 58.6816 26.9375 58.3945 27.0547C58.1074 27.1719 57.8643 27.3359 57.665 27.5469C57.4658 27.7578 57.3076 28.0098 57.1904 28.3027C57.0791 28.5898 57.0059 28.9062 56.9707 29.252L56.5137 29.5156C56.5137 28.9414 56.5693 28.4023 56.6807 27.8984C56.7979 27.3945 56.9766 26.9492 57.2168 26.5625C57.457 26.1699 57.7617 25.8652 58.1309 25.6484C58.5059 25.4258 58.9512 25.3145 59.4668 25.3145C59.584 25.3145 59.7188 25.3291 59.8711 25.3584C60.0234 25.3818 60.1289 25.4082 60.1875 25.4375ZM61.084 30.3506V30.1484C61.084 29.4629 61.1836 28.8271 61.3828 28.2412C61.582 27.6494 61.8691 27.1367 62.2441 26.7031C62.6191 26.2637 63.0732 25.9238 63.6064 25.6836C64.1396 25.4375 64.7373 25.3145 65.3994 25.3145C66.0674 25.3145 66.668 25.4375 67.2012 25.6836C67.7402 25.9238 68.1973 26.2637 68.5723 26.7031C68.9531 27.1367 69.2432 27.6494 69.4424 28.2412C69.6416 28.8271 69.7412 29.4629 69.7412 30.1484V30.3506C69.7412 31.0361 69.6416 31.6719 69.4424 32.2578C69.2432 32.8438 68.9531 33.3564 68.5723 33.7959C68.1973 34.2295 67.7432 34.5693 67.21 34.8154C66.6826 35.0557 66.085 35.1758 65.417 35.1758C64.749 35.1758 64.1484 35.0557 63.6152 34.8154C63.082 34.5693 62.625 34.2295 62.2441 33.7959C61.8691 33.3564 61.582 32.8438 61.3828 32.2578C61.1836 31.6719 61.084 31.0361 61.084 30.3506ZM62.71 30.1484V30.3506C62.71 30.8252 62.7656 31.2734 62.877 31.6953C62.9883 32.1113 63.1553 32.4805 63.3779 32.8027C63.6064 33.125 63.8906 33.3799 64.2305 33.5674C64.5703 33.749 64.9658 33.8398 65.417 33.8398C65.8623 33.8398 66.252 33.749 66.5859 33.5674C66.9258 33.3799 67.207 33.125 67.4297 32.8027C67.6523 32.4805 67.8193 32.1113 67.9307 31.6953C68.0479 31.2734 68.1064 30.8252 68.1064 30.3506V30.1484C68.1064 29.6797 68.0479 29.2373 67.9307 28.8213C67.8193 28.3994 67.6494 28.0273 67.4209 27.7051C67.1982 27.377 66.917 27.1191 66.5771 26.9316C66.2432 26.7441 65.8506 26.6504 65.3994 26.6504C64.9541 26.6504 64.5615 26.7441 64.2217 26.9316C63.8877 27.1191 63.6064 27.377 63.3779 27.7051C63.1553 28.0273 62.9883 28.3994 62.877 28.8213C62.7656 29.2373 62.71 29.6797 62.71 30.1484ZM80.1914 35.1758C79.5293 35.1758 78.9287 35.0645 78.3896 34.8418C77.8564 34.6133 77.3965 34.2939 77.0098 33.8838C76.6289 33.4736 76.3359 32.9873 76.1309 32.4248C75.9258 31.8623 75.8232 31.2471 75.8232 30.5791V30.21C75.8232 29.4365 75.9375 28.748 76.166 28.1445C76.3945 27.5352 76.7051 27.0195 77.0977 26.5977C77.4902 26.1758 77.9355 25.8564 78.4336 25.6396C78.9316 25.4229 79.4473 25.3145 79.9805 25.3145C80.6602 25.3145 81.2461 25.4316 81.7383 25.666C82.2363 25.9004 82.6436 26.2285 82.96 26.6504C83.2764 27.0664 83.5107 27.5586 83.6631 28.127C83.8154 28.6895 83.8916 29.3047 83.8916 29.9727V30.7021H76.79V29.375H82.2656V29.252C82.2422 28.8301 82.1543 28.4199 82.002 28.0215C81.8555 27.623 81.6211 27.2949 81.2988 27.0371C80.9766 26.7793 80.5371 26.6504 79.9805 26.6504C79.6113 26.6504 79.2715 26.7295 78.9609 26.8877C78.6504 27.04 78.3838 27.2686 78.1611 27.5732C77.9385 27.8779 77.7656 28.25 77.6426 28.6895C77.5195 29.1289 77.458 29.6357 77.458 30.21V30.5791C77.458 31.0303 77.5195 31.4551 77.6426 31.8535C77.7715 32.2461 77.9561 32.5918 78.1963 32.8906C78.4424 33.1895 78.7383 33.4238 79.084 33.5938C79.4355 33.7637 79.834 33.8486 80.2793 33.8486C80.8535 33.8486 81.3398 33.7314 81.7383 33.4971C82.1367 33.2627 82.4854 32.9492 82.7842 32.5566L83.7686 33.3389C83.5635 33.6494 83.3027 33.9453 82.9863 34.2266C82.6699 34.5078 82.2803 34.7363 81.8174 34.9121C81.3604 35.0879 80.8184 35.1758 80.1914 35.1758ZM92.0215 21.5V35H90.3867V21.5H92.0215ZM94.2012 30.3506V30.1484C94.2012 29.4629 94.3008 28.8271 94.5 28.2412C94.6992 27.6494 94.9863 27.1367 95.3613 26.7031C95.7363 26.2637 96.1904 25.9238 96.7236 25.6836C97.2568 25.4375 97.8545 25.3145 98.5166 25.3145C99.1846 25.3145 99.7852 25.4375 100.318 25.6836C100.857 25.9238 101.314 26.2637 101.689 26.7031C102.07 27.1367 102.36 27.6494 102.56 28.2412C102.759 28.8271 102.858 29.4629 102.858 30.1484V30.3506C102.858 31.0361 102.759 31.6719 102.56 32.2578C102.36 32.8438 102.07 33.3564 101.689 33.7959C101.314 34.2295 100.86 34.5693 100.327 34.8154C99.7998 35.0557 99.2021 35.1758 98.5342 35.1758C97.8662 35.1758 97.2656 35.0557 96.7324 34.8154C96.1992 34.5693 95.7422 34.2295 95.3613 33.7959C94.9863 33.3564 94.6992 32.8438 94.5 32.2578C94.3008 31.6719 94.2012 31.0361 94.2012 30.3506ZM95.8271 30.1484V30.3506C95.8271 30.8252 95.8828 31.2734 95.9941 31.6953C96.1055 32.1113 96.2725 32.4805 96.4951 32.8027C96.7236 33.125 97.0078 33.3799 97.3477 33.5674C97.6875 33.749 98.083 33.8398 98.5342 33.8398C98.9795 33.8398 99.3691 33.749 99.7031 33.5674C100.043 33.3799 100.324 33.125 100.547 32.8027C100.77 32.4805 100.937 32.1113 101.048 31.6953C101.165 31.2734 101.224 30.8252 101.224 30.3506V30.1484C101.224 29.6797 101.165 29.2373 101.048 28.8213C100.937 28.3994 100.767 28.0273 100.538 27.7051C100.315 27.377 100.034 27.1191 99.6943 26.9316C99.3604 26.7441 98.9678 26.6504 98.5166 26.6504C98.0713 26.6504 97.6787 26.7441 97.3389 26.9316C97.0049 27.1191 96.7236 27.377 96.4951 27.7051C96.2725 28.0273 96.1055 28.3994 95.9941 28.8213C95.8828 29.2373 95.8271 29.6797 95.8271 30.1484ZM111.059 25.4902H112.535V34.7979C112.535 35.6357 112.365 36.3506 112.025 36.9424C111.686 37.5342 111.211 37.9824 110.602 38.2871C109.998 38.5977 109.301 38.7529 108.51 38.7529C108.182 38.7529 107.795 38.7002 107.35 38.5947C106.91 38.4951 106.477 38.3223 106.049 38.0762C105.627 37.8359 105.272 37.5107 104.985 37.1006L105.838 36.1338C106.236 36.6143 106.652 36.9482 107.086 37.1357C107.525 37.3232 107.959 37.417 108.387 37.417C108.902 37.417 109.348 37.3203 109.723 37.127C110.098 36.9336 110.388 36.6465 110.593 36.2656C110.804 35.8906 110.909 35.4277 110.909 34.877V27.582L111.059 25.4902ZM104.511 30.3506V30.166C104.511 29.4395 104.596 28.7803 104.766 28.1885C104.941 27.5908 105.19 27.0781 105.513 26.6504C105.841 26.2227 106.236 25.8945 106.699 25.666C107.162 25.4316 107.684 25.3145 108.264 25.3145C108.861 25.3145 109.383 25.4199 109.828 25.6309C110.279 25.8359 110.66 26.1377 110.971 26.5361C111.287 26.9287 111.536 27.4033 111.718 27.96C111.899 28.5166 112.025 29.1465 112.096 29.8496V30.6582C112.031 31.3555 111.905 31.9824 111.718 32.5391C111.536 33.0957 111.287 33.5703 110.971 33.9629C110.66 34.3555 110.279 34.6572 109.828 34.8682C109.377 35.0732 108.85 35.1758 108.246 35.1758C107.678 35.1758 107.162 35.0557 106.699 34.8154C106.242 34.5752 105.85 34.2383 105.521 33.8047C105.193 33.3711 104.941 32.8613 104.766 32.2754C104.596 31.6836 104.511 31.042 104.511 30.3506ZM106.137 30.166V30.3506C106.137 30.8252 106.184 31.2705 106.277 31.6865C106.377 32.1025 106.526 32.4688 106.726 32.7852C106.931 33.1016 107.191 33.3506 107.508 33.5322C107.824 33.708 108.202 33.7959 108.642 33.7959C109.181 33.7959 109.626 33.6816 109.978 33.4531C110.329 33.2246 110.607 32.9229 110.812 32.5479C111.023 32.1729 111.188 31.7656 111.305 31.3262V29.208C111.24 28.8857 111.141 28.5752 111.006 28.2764C110.877 27.9717 110.707 27.7021 110.496 27.4678C110.291 27.2275 110.036 27.0371 109.731 26.8965C109.427 26.7559 109.069 26.6855 108.659 26.6855C108.214 26.6855 107.83 26.7793 107.508 26.9668C107.191 27.1484 106.931 27.4004 106.726 27.7227C106.526 28.0391 106.377 28.4082 106.277 28.8301C106.184 29.2461 106.137 29.6914 106.137 30.166ZM116.771 25.4902V35H115.137V25.4902H116.771ZM115.014 22.9678C115.014 22.7041 115.093 22.4814 115.251 22.2998C115.415 22.1182 115.655 22.0273 115.972 22.0273C116.282 22.0273 116.52 22.1182 116.684 22.2998C116.854 22.4814 116.938 22.7041 116.938 22.9678C116.938 23.2197 116.854 23.4365 116.684 23.6182C116.52 23.7939 116.282 23.8818 115.972 23.8818C115.655 23.8818 115.415 23.7939 115.251 23.6182C115.093 23.4365 115.014 23.2197 115.014 22.9678ZM121.008 27.5205V35H119.382V25.4902H120.92L121.008 27.5205ZM120.621 29.8848L119.944 29.8584C119.95 29.208 120.047 28.6074 120.234 28.0566C120.422 27.5 120.686 27.0166 121.025 26.6064C121.365 26.1963 121.77 25.8799 122.238 25.6572C122.713 25.4287 123.237 25.3145 123.812 25.3145C124.28 25.3145 124.702 25.3789 125.077 25.5078C125.452 25.6309 125.771 25.8301 126.035 26.1055C126.305 26.3809 126.51 26.7383 126.65 27.1777C126.791 27.6113 126.861 28.1416 126.861 28.7686V35H125.227V28.751C125.227 28.2529 125.153 27.8545 125.007 27.5557C124.86 27.251 124.646 27.0312 124.365 26.8965C124.084 26.7559 123.738 26.6855 123.328 26.6855C122.924 26.6855 122.555 26.7705 122.221 26.9404C121.893 27.1104 121.608 27.3447 121.368 27.6436C121.134 27.9424 120.949 28.2852 120.814 28.6719C120.686 29.0527 120.621 29.457 120.621 29.8848Z" fill="#FFFBFB"/>
</svg>
