<svg width="35" height="32" viewBox="0 0 35 32" fill="none" xmlns="http://www.w3.org/2000/svg">
<path d="M34.2686 5.00692C33.8661 3.03608 32.6801 1.48392 31.1743 0.957167C28.4448 0 17.5 0 17.5 0C17.5 0 6.55525 0 3.82573 0.957167C2.31988 1.484 1.13389 3.03608 0.731359 5.00692C0 8.57917 0 16.0323 0 16.0323C0 16.0323 0 23.4855 0.731359 27.0578C1.13389 29.0286 2.31988 30.5161 3.82573 31.0428C6.55525 32 17.5 32 17.5 32C17.5 32 28.4447 32 31.1743 31.0428C32.6801 30.5161 33.8661 29.0286 34.2686 27.0578C35 23.4855 35 16.0323 35 16.0323C35 16.0323 35 8.57917 34.2686 5.00692ZM13.9204 22.7993V9.26542L23.0681 16.0325L13.9204 22.7993Z" fill="#FFFCFC"/>
</svg>
